<svg width="222" height="220" viewBox="0 0 222 220" fill="none" xmlns="http://www.w3.org/2000/svg">
<path fill-rule="evenodd" clip-rule="evenodd" d="M47.1233 76.4932C48.0759 68.6452 56.3537 63.7393 62.2656 57.6071C69.4388 50.1666 73.593 39.3688 84.7642 37.4499C97.0786 35.3347 109.329 40.9898 118.839 47.8896C129.162 55.3799 137.108 65.1054 138.574 76.4932C140.208 89.1784 137.298 102.57 127.1 112.031C116.482 121.883 100.251 129.156 84.7642 126.418C70.4677 123.89 64.9741 110.028 57.1607 99.6645C51.7177 92.4452 46.0916 84.993 47.1233 76.4932Z" fill="#A5AF80"/>
<path d="M154 80.5C154 103.972 134.972 123 111.5 123C88.0279 123 69 103.972 69 80.5C69 57.0279 88.0279 38 111.5 38C134.972 38 154 57.0279 154 80.5Z" fill="white"/>
<path fill-rule="evenodd" clip-rule="evenodd" d="M111.5 119C132.763 119 150 101.763 150 80.5C150 59.237 132.763 42 111.5 42C90.237 42 73 59.237 73 80.5C73 101.763 90.237 119 111.5 119ZM111.5 123C134.972 123 154 103.972 154 80.5C154 57.0279 134.972 38 111.5 38C88.0279 38 69 57.0279 69 80.5C69 103.972 88.0279 123 111.5 123Z" fill="black"/>
<path d="M47.2202 149.536H48.4602C48.5989 149.536 48.7109 149.571 48.7962 149.64C48.8815 149.709 48.9455 149.797 48.9882 149.904L52.2282 157.992C52.3029 158.173 52.3695 158.371 52.4282 158.584C52.4922 158.797 52.5535 159.019 52.6122 159.248C52.6602 159.019 52.7109 158.797 52.7642 158.584C52.8229 158.371 52.8895 158.173 52.9642 157.992L56.1882 149.904C56.2255 149.813 56.2895 149.731 56.3802 149.656C56.4709 149.576 56.5829 149.536 56.7162 149.536H57.9642L53.2922 161H51.8922L47.2202 149.536Z" fill="black"/>
<path d="M66.4872 149.536V150.8H60.9832V154.608H65.4392V155.824H60.9832V159.736H66.4872V161H59.4232V149.536H66.4872Z" fill="black"/>
<path d="M70.4241 156.216V161H68.8801V149.536H72.1201C72.8454 149.536 73.4721 149.611 74.0001 149.76C74.5281 149.904 74.9628 150.115 75.3041 150.392C75.6508 150.669 75.9068 151.005 76.0721 151.4C76.2374 151.789 76.3201 152.227 76.3201 152.712C76.3201 153.117 76.2561 153.496 76.1281 153.848C76.0001 154.2 75.8134 154.517 75.5681 154.8C75.3281 155.077 75.0321 155.315 74.6801 155.512C74.3334 155.709 73.9388 155.859 73.4961 155.96C73.6881 156.072 73.8588 156.235 74.0081 156.448L77.3521 161H75.9761C75.6934 161 75.4854 160.891 75.3521 160.672L72.3761 156.576C72.2854 156.448 72.1868 156.357 72.0801 156.304C71.9734 156.245 71.8134 156.216 71.6001 156.216H70.4241ZM70.4241 155.088H72.0481C72.5014 155.088 72.8988 155.035 73.2401 154.928C73.5868 154.816 73.8748 154.661 74.1041 154.464C74.3388 154.261 74.5148 154.021 74.6321 153.744C74.7494 153.467 74.8081 153.16 74.8081 152.824C74.8081 152.141 74.5814 151.627 74.1281 151.28C73.6801 150.933 73.0108 150.76 72.1201 150.76H70.4241V155.088Z" fill="black"/>
<path d="M86.4031 149.536V150.84H82.6991V161H81.1471V150.84H77.4271V149.536H86.4031Z" fill="black"/>
<path d="M86.0031 155.6H89.9551V156.808H86.0031V155.6Z" fill="black"/>
<path d="M100.222 158.632C100.307 158.632 100.385 158.667 100.454 158.736L101.062 159.4C100.593 159.944 100.022 160.368 99.35 160.672C98.6833 160.976 97.878 161.128 96.934 161.128C96.1073 161.128 95.358 160.987 94.686 160.704C94.014 160.416 93.4406 160.016 92.966 159.504C92.4913 158.987 92.1233 158.368 91.862 157.648C91.6006 156.928 91.47 156.136 91.47 155.272C91.47 154.408 91.6086 153.616 91.886 152.896C92.1686 152.176 92.5633 151.557 93.07 151.04C93.5766 150.523 94.182 150.123 94.886 149.84C95.5953 149.552 96.3766 149.408 97.23 149.408C98.0726 149.408 98.798 149.539 99.406 149.8C100.019 150.061 100.563 150.416 101.038 150.864L100.534 151.576C100.497 151.629 100.454 151.675 100.406 151.712C100.358 151.744 100.289 151.76 100.198 151.76C100.129 151.76 100.054 151.736 99.974 151.688C99.8993 151.635 99.8086 151.571 99.702 151.496C99.5953 151.421 99.47 151.341 99.326 151.256C99.182 151.171 99.0113 151.091 98.814 151.016C98.6166 150.941 98.3873 150.88 98.126 150.832C97.8646 150.779 97.5633 150.752 97.222 150.752C96.6086 150.752 96.046 150.859 95.534 151.072C95.0273 151.28 94.59 151.579 94.222 151.968C93.854 152.357 93.566 152.832 93.358 153.392C93.1553 153.952 93.054 154.579 93.054 155.272C93.054 155.987 93.1553 156.624 93.358 157.184C93.566 157.744 93.846 158.219 94.198 158.608C94.5553 158.992 94.9766 159.285 95.462 159.488C95.9473 159.691 96.47 159.792 97.03 159.792C97.3713 159.792 97.678 159.773 97.95 159.736C98.222 159.693 98.4726 159.629 98.702 159.544C98.9366 159.459 99.1526 159.352 99.35 159.224C99.5526 159.091 99.7553 158.933 99.958 158.752C100.049 158.672 100.137 158.632 100.222 158.632Z" fill="black"/>
<path d="M108.461 158.84H112.781V161H105.757V149.344H108.461V158.84Z" fill="black"/>
<path d="M124.902 161H122.806C122.571 161 122.376 160.947 122.222 160.84C122.072 160.728 121.968 160.587 121.91 160.416L121.222 158.384H116.79L116.102 160.416C116.048 160.565 115.944 160.701 115.79 160.824C115.635 160.941 115.446 161 115.222 161H113.11L117.622 149.344H120.39L124.902 161ZM117.414 156.544H120.598L119.526 153.352C119.456 153.149 119.374 152.912 119.278 152.64C119.187 152.363 119.096 152.064 119.006 151.744C118.92 152.069 118.832 152.371 118.742 152.648C118.651 152.925 118.566 153.165 118.486 153.368L117.414 156.544Z" fill="black"/>
<path d="M132.347 151.712C132.267 151.84 132.181 151.936 132.091 152C132.005 152.064 131.893 152.096 131.755 152.096C131.632 152.096 131.499 152.059 131.355 151.984C131.216 151.904 131.056 151.816 130.875 151.72C130.699 151.624 130.496 151.539 130.267 151.464C130.037 151.384 129.776 151.344 129.483 151.344C128.976 151.344 128.597 151.453 128.347 151.672C128.101 151.885 127.979 152.176 127.979 152.544C127.979 152.779 128.053 152.973 128.203 153.128C128.352 153.283 128.547 153.416 128.787 153.528C129.032 153.64 129.309 153.744 129.619 153.84C129.933 153.931 130.253 154.035 130.579 154.152C130.904 154.264 131.221 154.397 131.531 154.552C131.845 154.707 132.123 154.904 132.363 155.144C132.608 155.384 132.805 155.677 132.955 156.024C133.104 156.365 133.179 156.779 133.179 157.264C133.179 157.803 133.085 158.307 132.899 158.776C132.712 159.245 132.44 159.656 132.083 160.008C131.731 160.355 131.293 160.629 130.771 160.832C130.253 161.029 129.664 161.128 129.003 161.128C128.64 161.128 128.269 161.091 127.891 161.016C127.517 160.941 127.155 160.837 126.803 160.704C126.451 160.565 126.12 160.403 125.811 160.216C125.501 160.029 125.232 159.821 125.003 159.592L125.803 158.328C125.861 158.232 125.944 158.155 126.051 158.096C126.157 158.037 126.272 158.008 126.395 158.008C126.555 158.008 126.715 158.059 126.875 158.16C127.04 158.261 127.224 158.373 127.427 158.496C127.635 158.619 127.872 158.731 128.139 158.832C128.405 158.933 128.72 158.984 129.083 158.984C129.573 158.984 129.955 158.877 130.227 158.664C130.499 158.445 130.635 158.101 130.635 157.632C130.635 157.36 130.56 157.139 130.411 156.968C130.261 156.797 130.064 156.656 129.819 156.544C129.579 156.432 129.304 156.333 128.995 156.248C128.685 156.163 128.368 156.069 128.043 155.968C127.717 155.861 127.4 155.733 127.091 155.584C126.781 155.429 126.504 155.229 126.259 154.984C126.019 154.733 125.824 154.424 125.675 154.056C125.525 153.683 125.451 153.224 125.451 152.68C125.451 152.243 125.539 151.816 125.715 151.4C125.891 150.984 126.149 150.613 126.491 150.288C126.832 149.963 127.251 149.704 127.747 149.512C128.243 149.315 128.811 149.216 129.451 149.216C129.808 149.216 130.155 149.245 130.491 149.304C130.832 149.357 131.155 149.44 131.459 149.552C131.763 149.659 132.045 149.789 132.307 149.944C132.573 150.093 132.811 150.264 133.019 150.456L132.347 151.712Z" fill="black"/>
<path d="M142.986 149.344V151.488H139.706V161H137.002V151.488H133.722V149.344H142.986Z" fill="black"/>
<path d="M146.805 156.688V161H144.101V149.344H147.893C148.735 149.344 149.453 149.432 150.045 149.608C150.642 149.779 151.127 150.019 151.501 150.328C151.879 150.637 152.154 151.003 152.325 151.424C152.495 151.845 152.581 152.304 152.581 152.8C152.581 153.179 152.53 153.536 152.429 153.872C152.327 154.208 152.175 154.52 151.973 154.808C151.775 155.091 151.53 155.344 151.237 155.568C150.949 155.792 150.615 155.976 150.237 156.12C150.418 156.211 150.586 156.323 150.741 156.456C150.901 156.589 151.039 156.752 151.157 156.944L153.637 161H151.189C150.735 161 150.41 160.829 150.213 160.488L148.277 157.104C148.191 156.955 148.09 156.848 147.973 156.784C147.861 156.72 147.701 156.688 147.493 156.688H146.805ZM146.805 154.824H147.893C148.261 154.824 148.573 154.779 148.829 154.688C149.09 154.592 149.303 154.461 149.469 154.296C149.634 154.131 149.754 153.939 149.829 153.72C149.903 153.496 149.941 153.256 149.941 153C149.941 152.488 149.773 152.088 149.437 151.8C149.106 151.512 148.591 151.368 147.893 151.368H146.805V154.824Z" fill="black"/>
<path d="M165.839 155.168C165.839 156.011 165.692 156.795 165.399 157.52C165.111 158.245 164.703 158.877 164.175 159.416C163.647 159.949 163.01 160.368 162.263 160.672C161.522 160.976 160.698 161.128 159.791 161.128C158.884 161.128 158.058 160.976 157.311 160.672C156.564 160.368 155.924 159.949 155.391 159.416C154.863 158.877 154.452 158.245 154.159 157.52C153.871 156.795 153.727 156.011 153.727 155.168C153.727 154.325 153.871 153.541 154.159 152.816C154.452 152.091 154.863 151.461 155.391 150.928C155.924 150.395 156.564 149.976 157.311 149.672C158.058 149.368 158.884 149.216 159.791 149.216C160.698 149.216 161.522 149.371 162.263 149.68C163.01 149.984 163.647 150.403 164.175 150.936C164.703 151.469 165.111 152.099 165.399 152.824C165.692 153.549 165.839 154.331 165.839 155.168ZM163.071 155.168C163.071 154.592 162.996 154.075 162.847 153.616C162.698 153.152 162.482 152.76 162.199 152.44C161.922 152.12 161.58 151.875 161.175 151.704C160.77 151.533 160.308 151.448 159.791 151.448C159.268 151.448 158.802 151.533 158.391 151.704C157.986 151.875 157.642 152.12 157.359 152.44C157.082 152.76 156.868 153.152 156.719 153.616C156.57 154.075 156.495 154.592 156.495 155.168C156.495 155.749 156.57 156.272 156.719 156.736C156.868 157.195 157.082 157.584 157.359 157.904C157.642 158.224 157.986 158.469 158.391 158.64C158.802 158.805 159.268 158.888 159.791 158.888C160.308 158.888 160.77 158.805 161.175 158.64C161.58 158.469 161.922 158.224 162.199 157.904C162.482 157.584 162.698 157.195 162.847 156.736C162.996 156.272 163.071 155.749 163.071 155.168Z" fill="black"/>
<path d="M173.628 151.712C173.548 151.84 173.463 151.936 173.372 152C173.287 152.064 173.175 152.096 173.036 152.096C172.913 152.096 172.78 152.059 172.636 151.984C172.497 151.904 172.337 151.816 172.156 151.72C171.98 151.624 171.777 151.539 171.548 151.464C171.319 151.384 171.057 151.344 170.764 151.344C170.257 151.344 169.879 151.453 169.628 151.672C169.383 151.885 169.26 152.176 169.26 152.544C169.26 152.779 169.334 152.973 169.484 153.128C169.633 153.283 169.828 153.416 170.068 153.528C170.313 153.64 170.591 153.744 170.9 153.84C171.215 153.931 171.535 154.035 171.86 154.152C172.185 154.264 172.503 154.397 172.812 154.552C173.127 154.707 173.404 154.904 173.644 155.144C173.889 155.384 174.087 155.677 174.236 156.024C174.385 156.365 174.46 156.779 174.46 157.264C174.46 157.803 174.367 158.307 174.18 158.776C173.993 159.245 173.721 159.656 173.364 160.008C173.012 160.355 172.575 160.629 172.052 160.832C171.535 161.029 170.945 161.128 170.284 161.128C169.921 161.128 169.551 161.091 169.172 161.016C168.799 160.941 168.436 160.837 168.084 160.704C167.732 160.565 167.401 160.403 167.092 160.216C166.783 160.029 166.513 159.821 166.284 159.592L167.084 158.328C167.143 158.232 167.225 158.155 167.332 158.096C167.439 158.037 167.553 158.008 167.676 158.008C167.836 158.008 167.996 158.059 168.156 158.16C168.321 158.261 168.505 158.373 168.708 158.496C168.916 158.619 169.153 158.731 169.42 158.832C169.687 158.933 170.001 158.984 170.364 158.984C170.855 158.984 171.236 158.877 171.508 158.664C171.78 158.445 171.916 158.101 171.916 157.632C171.916 157.36 171.841 157.139 171.692 156.968C171.543 156.797 171.345 156.656 171.1 156.544C170.86 156.432 170.585 156.333 170.276 156.248C169.967 156.163 169.649 156.069 169.324 155.968C168.999 155.861 168.681 155.733 168.372 155.584C168.063 155.429 167.785 155.229 167.54 154.984C167.3 154.733 167.105 154.424 166.956 154.056C166.807 153.683 166.732 153.224 166.732 152.68C166.732 152.243 166.82 151.816 166.996 151.4C167.172 150.984 167.431 150.613 167.772 150.288C168.113 149.963 168.532 149.704 169.028 149.512C169.524 149.315 170.092 149.216 170.732 149.216C171.089 149.216 171.436 149.245 171.772 149.304C172.113 149.357 172.436 149.44 172.74 149.552C173.044 149.659 173.327 149.789 173.588 149.944C173.855 150.093 174.092 150.264 174.3 150.456L173.628 151.712Z" fill="black"/>
<path d="M98.8929 89.6801H107.533V94.0001H93.4849V70.6881H98.8929V89.6801Z" fill="black"/>
<path d="M131.775 94.0001H127.583C127.113 94.0001 126.724 93.8934 126.415 93.6801C126.116 93.4561 125.908 93.1734 125.791 92.8321L124.415 88.7681H115.551L114.175 92.8321C114.068 93.1308 113.86 93.4028 113.551 93.6481C113.241 93.8828 112.863 94.0001 112.415 94.0001H108.191L117.215 70.6881H122.751L131.775 94.0001ZM116.799 85.0881H123.167L121.023 78.7041C120.884 78.2988 120.719 77.8241 120.527 77.2801C120.345 76.7254 120.164 76.1281 119.983 75.4881C119.812 76.1388 119.636 76.7414 119.455 77.2961C119.273 77.8508 119.103 78.3308 118.943 78.7361L116.799 85.0881Z" fill="black"/>
</svg>
