<svg width="222" height="220" viewBox="0 0 222 220" fill="none" xmlns="http://www.w3.org/2000/svg">
<path d="M182.581 182.168C182.581 183.011 182.435 183.795 182.141 184.52C181.853 185.245 181.445 185.877 180.917 186.416C180.389 186.949 179.752 187.368 179.005 187.672C178.264 187.976 177.44 188.128 176.533 188.128C175.627 188.128 174.8 187.976 174.053 187.672C173.307 187.368 172.667 186.949 172.133 186.416C171.605 185.877 171.195 185.245 170.901 184.52C170.613 183.795 170.469 183.011 170.469 182.168C170.469 181.325 170.613 180.541 170.901 179.816C171.195 179.091 171.605 178.461 172.133 177.928C172.667 177.395 173.307 176.976 174.053 176.672C174.8 176.368 175.627 176.216 176.533 176.216C177.44 176.216 178.264 176.371 179.005 176.68C179.752 176.984 180.389 177.403 180.917 177.936C181.445 178.469 181.853 179.099 182.141 179.824C182.435 180.549 182.581 181.331 182.581 182.168ZM179.813 182.168C179.813 181.592 179.739 181.075 179.589 180.616C179.44 180.152 179.224 179.76 178.941 179.44C178.664 179.12 178.323 178.875 177.917 178.704C177.512 178.533 177.051 178.448 176.533 178.448C176.011 178.448 175.544 178.533 175.133 178.704C174.728 178.875 174.384 179.12 174.101 179.44C173.824 179.76 173.611 180.152 173.461 180.616C173.312 181.075 173.237 181.592 173.237 182.168C173.237 182.749 173.312 183.272 173.461 183.736C173.611 184.195 173.824 184.584 174.101 184.904C174.384 185.224 174.728 185.469 175.133 185.64C175.544 185.805 176.011 185.888 176.533 185.888C177.051 185.888 177.512 185.805 177.917 185.64C178.323 185.469 178.664 185.224 178.941 184.904C179.224 184.584 179.44 184.195 179.589 183.736C179.739 183.272 179.813 182.749 179.813 182.168Z" fill="black"/>
<path d="M170.613 188H168.517C168.282 188 168.087 187.947 167.933 187.84C167.783 187.728 167.679 187.587 167.621 187.416L166.933 185.384H162.501L161.813 187.416C161.759 187.565 161.655 187.701 161.501 187.824C161.346 187.941 161.157 188 160.933 188H158.821L163.333 176.344H166.101L170.613 188ZM163.125 183.544H166.309L165.237 180.352C165.167 180.149 165.085 179.912 164.989 179.64C164.898 179.363 164.807 179.064 164.717 178.744C164.631 179.069 164.543 179.371 164.453 179.648C164.362 179.925 164.277 180.165 164.197 180.368L163.125 183.544ZM165.701 174.168C165.813 174.168 165.906 174.139 165.981 174.08C166.061 174.021 166.101 173.915 166.101 173.76H167.445C167.445 174.053 167.405 174.32 167.325 174.56C167.25 174.8 167.141 175.008 166.997 175.184C166.853 175.355 166.677 175.488 166.469 175.584C166.261 175.675 166.026 175.72 165.765 175.72C165.567 175.72 165.373 175.696 165.181 175.648C164.994 175.6 164.815 175.547 164.645 175.488C164.479 175.424 164.327 175.368 164.189 175.32C164.05 175.272 163.93 175.248 163.829 175.248C163.717 175.248 163.623 175.283 163.549 175.352C163.479 175.416 163.445 175.523 163.445 175.672H162.085C162.085 175.379 162.125 175.112 162.205 174.872C162.285 174.632 162.397 174.427 162.541 174.256C162.685 174.08 162.861 173.944 163.069 173.848C163.277 173.752 163.509 173.704 163.765 173.704C163.962 173.704 164.154 173.728 164.341 173.776C164.533 173.824 164.711 173.877 164.877 173.936C165.047 173.995 165.202 174.048 165.341 174.096C165.479 174.144 165.599 174.168 165.701 174.168Z" fill="black"/>
<path d="M159.932 176.344V178.488H156.652V188H153.948V178.488H150.668V176.344H159.932Z" fill="black"/>
<path d="M149.292 178.712C149.212 178.84 149.126 178.936 149.036 179C148.95 179.064 148.838 179.096 148.7 179.096C148.577 179.096 148.444 179.059 148.3 178.984C148.161 178.904 148.001 178.816 147.82 178.72C147.644 178.624 147.441 178.539 147.212 178.464C146.982 178.384 146.721 178.344 146.428 178.344C145.921 178.344 145.542 178.453 145.292 178.672C145.046 178.885 144.924 179.176 144.924 179.544C144.924 179.779 144.998 179.973 145.148 180.128C145.297 180.283 145.492 180.416 145.732 180.528C145.977 180.64 146.254 180.744 146.564 180.84C146.878 180.931 147.198 181.035 147.524 181.152C147.849 181.264 148.166 181.397 148.476 181.552C148.79 181.707 149.068 181.904 149.308 182.144C149.553 182.384 149.75 182.677 149.9 183.024C150.049 183.365 150.124 183.779 150.124 184.264C150.124 184.803 150.03 185.307 149.844 185.776C149.657 186.245 149.385 186.656 149.028 187.008C148.676 187.355 148.238 187.629 147.716 187.832C147.198 188.029 146.609 188.128 145.948 188.128C145.585 188.128 145.214 188.091 144.836 188.016C144.462 187.941 144.1 187.837 143.748 187.704C143.396 187.565 143.065 187.403 142.756 187.216C142.446 187.029 142.177 186.821 141.948 186.592L142.748 185.328C142.806 185.232 142.889 185.155 142.996 185.096C143.102 185.037 143.217 185.008 143.34 185.008C143.5 185.008 143.66 185.059 143.82 185.16C143.985 185.261 144.169 185.373 144.372 185.496C144.58 185.619 144.817 185.731 145.084 185.832C145.35 185.933 145.665 185.984 146.028 185.984C146.518 185.984 146.9 185.877 147.172 185.664C147.444 185.445 147.58 185.101 147.58 184.632C147.58 184.36 147.505 184.139 147.356 183.968C147.206 183.797 147.009 183.656 146.764 183.544C146.524 183.432 146.249 183.333 145.94 183.248C145.63 183.163 145.313 183.069 144.988 182.968C144.662 182.861 144.345 182.733 144.036 182.584C143.726 182.429 143.449 182.229 143.204 181.984C142.964 181.733 142.769 181.424 142.62 181.056C142.47 180.683 142.396 180.224 142.396 179.68C142.396 179.243 142.484 178.816 142.66 178.4C142.836 177.984 143.094 177.613 143.436 177.288C143.777 176.963 144.196 176.704 144.692 176.512C145.188 176.315 145.756 176.216 146.396 176.216C146.753 176.216 147.1 176.245 147.436 176.304C147.777 176.357 148.1 176.44 148.404 176.552C148.708 176.659 148.99 176.789 149.252 176.944C149.518 177.093 149.756 177.264 149.964 177.456L149.292 178.712Z" fill="black"/>
<path d="M141.253 176.344V178.424H136.469V181.144H140.133V183.144H136.469V185.92H141.253V188H133.749V176.344H141.253Z" fill="black"/>
<path d="M127.847 186.048C128.22 186.048 128.551 186.016 128.839 185.952C129.127 185.888 129.399 185.803 129.655 185.696V183.928H128.503C128.332 183.928 128.199 183.883 128.103 183.792C128.007 183.701 127.959 183.587 127.959 183.448V181.96H132.103V186.88C131.804 187.099 131.492 187.288 131.167 187.448C130.847 187.603 130.503 187.731 130.135 187.832C129.772 187.933 129.383 188.008 128.967 188.056C128.556 188.104 128.113 188.128 127.639 188.128C126.785 188.128 125.996 187.979 125.271 187.68C124.545 187.376 123.916 186.96 123.383 186.432C122.855 185.899 122.439 185.269 122.135 184.544C121.836 183.813 121.687 183.021 121.687 182.168C121.687 181.299 121.831 180.501 122.119 179.776C122.407 179.045 122.817 178.416 123.351 177.888C123.889 177.36 124.537 176.949 125.295 176.656C126.057 176.363 126.908 176.216 127.847 176.216C128.332 176.216 128.788 176.256 129.215 176.336C129.641 176.416 130.033 176.525 130.391 176.664C130.753 176.803 131.084 176.968 131.383 177.16C131.681 177.352 131.948 177.56 132.183 177.784L131.399 178.976C131.324 179.088 131.233 179.176 131.127 179.24C131.025 179.304 130.913 179.336 130.791 179.336C130.631 179.336 130.465 179.283 130.295 179.176C130.081 179.048 129.879 178.939 129.687 178.848C129.5 178.752 129.308 178.675 129.111 178.616C128.913 178.557 128.705 178.515 128.487 178.488C128.268 178.461 128.023 178.448 127.751 178.448C127.244 178.448 126.788 178.539 126.383 178.72C125.977 178.896 125.631 179.147 125.343 179.472C125.06 179.797 124.841 180.189 124.687 180.648C124.532 181.101 124.455 181.608 124.455 182.168C124.455 182.787 124.54 183.336 124.711 183.816C124.881 184.296 125.116 184.701 125.415 185.032C125.719 185.363 126.076 185.616 126.487 185.792C126.903 185.963 127.356 186.048 127.847 186.048Z" fill="black"/>
<path d="M117.722 176.344V178.424H112.938V181.144H116.602V183.144H112.938V185.92H117.722V188H110.218V176.344H117.722Z" fill="black"/>
<path d="M108.919 182.168C108.919 183.011 108.772 183.789 108.479 184.504C108.191 185.213 107.783 185.829 107.255 186.352C106.727 186.869 106.089 187.275 105.343 187.568C104.601 187.856 103.777 188 102.871 188H98.3428V176.344H102.871C103.777 176.344 104.601 176.491 105.343 176.784C106.089 177.077 106.727 177.483 107.255 178C107.783 178.517 108.191 179.133 108.479 179.848C108.772 180.557 108.919 181.331 108.919 182.168ZM106.151 182.168C106.151 181.592 106.076 181.072 105.927 180.608C105.777 180.144 105.561 179.752 105.279 179.432C105.001 179.107 104.66 178.859 104.255 178.688C103.849 178.512 103.388 178.424 102.871 178.424H101.063V185.92H102.871C103.388 185.92 103.849 185.835 104.255 185.664C104.66 185.488 105.001 185.24 105.279 184.92C105.561 184.595 105.777 184.2 105.927 183.736C106.076 183.272 106.151 182.749 106.151 182.168Z" fill="black"/>
<path d="M89.6562 185.84H93.9762V188H86.9521V176.344H89.6562V185.84Z" fill="black"/>
<path d="M85.4093 176.344V178.424H80.6253V181.144H84.2893V183.144H80.6253V185.92H85.4093V188H77.9053V176.344H85.4093Z" fill="black"/>
<path d="M67.2355 176.344C67.3529 176.344 67.4515 176.349 67.5315 176.36C67.6115 176.371 67.6835 176.392 67.7475 176.424C67.8115 176.451 67.8729 176.491 67.9315 176.544C67.9902 176.597 68.0569 176.669 68.1315 176.76L73.6675 183.76C73.6462 183.536 73.6302 183.32 73.6195 183.112C73.6089 182.899 73.6035 182.699 73.6035 182.512V176.344H75.9875V188H74.5795C74.3715 188 74.1955 187.968 74.0515 187.904C73.9075 187.84 73.7689 187.723 73.6355 187.552L68.1395 180.608C68.1555 180.811 68.1689 181.011 68.1795 181.208C68.1902 181.4 68.1955 181.581 68.1955 181.752V188H65.8115V176.344H67.2355Z" fill="black"/>
<path d="M63.6468 188H60.9268V176.344H63.6468V188Z" fill="black"/>
<path d="M59.7378 188H57.6418C57.4071 188 57.2125 187.947 57.0578 187.84C56.9085 187.728 56.8045 187.587 56.7458 187.416L56.0578 185.384H51.6258L50.9378 187.416C50.8845 187.565 50.7805 187.701 50.6258 187.824C50.4711 187.941 50.2818 188 50.0578 188H47.9458L52.4578 176.344H55.2258L59.7378 188ZM52.2498 183.544H55.4338L54.3618 180.352C54.2925 180.149 54.2098 179.912 54.1138 179.64C54.0231 179.363 53.9325 179.064 53.8418 178.744C53.7565 179.069 53.6685 179.371 53.5778 179.648C53.4871 179.925 53.4018 180.165 53.3218 180.368L52.2498 183.544Z" fill="black"/>
<path d="M42.7499 184.104V188H40.0459V176.344H44.1579C44.9792 176.344 45.6832 176.443 46.2699 176.64C46.8619 176.832 47.3472 177.099 47.7259 177.44C48.1099 177.781 48.3926 178.184 48.5739 178.648C48.7552 179.112 48.8459 179.613 48.8459 180.152C48.8459 180.733 48.7526 181.267 48.5659 181.752C48.3792 182.237 48.0939 182.653 47.7099 183C47.3259 183.347 46.8379 183.619 46.2459 183.816C45.6592 184.008 44.9632 184.104 44.1579 184.104H42.7499ZM42.7499 182.064H44.1579C44.8619 182.064 45.3686 181.896 45.6779 181.56C45.9872 181.224 46.1419 180.755 46.1419 180.152C46.1419 179.885 46.1019 179.643 46.0219 179.424C45.9419 179.205 45.8192 179.019 45.6539 178.864C45.4939 178.704 45.2886 178.581 45.0379 178.496C44.7926 178.411 44.4992 178.368 44.1579 178.368H42.7499V182.064Z" fill="black"/>
<path d="M135.1 167.096C135.153 167.096 135.198 167.115 135.236 167.152L135.556 167.496C135.321 167.747 135.065 167.973 134.788 168.176C134.51 168.373 134.206 168.544 133.876 168.688C133.55 168.827 133.19 168.933 132.796 169.008C132.406 169.088 131.977 169.128 131.507 169.128C130.723 169.128 130.004 168.992 129.348 168.72C128.697 168.443 128.137 168.053 127.668 167.552C127.204 167.045 126.841 166.435 126.58 165.72C126.318 165.005 126.188 164.211 126.188 163.336C126.188 162.477 126.321 161.693 126.588 160.984C126.86 160.275 127.238 159.667 127.724 159.16C128.214 158.648 128.798 158.253 129.476 157.976C130.158 157.693 130.91 157.552 131.732 157.552C132.142 157.552 132.518 157.584 132.86 157.648C133.201 157.707 133.518 157.795 133.812 157.912C134.11 158.024 134.39 158.165 134.652 158.336C134.913 158.507 135.169 158.704 135.42 158.928L135.172 159.288C135.129 159.352 135.062 159.384 134.972 159.384C134.924 159.384 134.862 159.357 134.788 159.304C134.713 159.245 134.617 159.176 134.5 159.096C134.388 159.011 134.249 158.92 134.084 158.824C133.924 158.723 133.731 158.632 133.507 158.552C133.283 158.467 133.025 158.397 132.732 158.344C132.438 158.285 132.105 158.256 131.732 158.256C131.044 158.256 130.412 158.376 129.836 158.616C129.26 158.851 128.764 159.189 128.348 159.632C127.932 160.069 127.606 160.603 127.372 161.232C127.142 161.856 127.028 162.557 127.028 163.336C127.028 164.136 127.142 164.851 127.372 165.48C127.601 166.109 127.918 166.643 128.324 167.08C128.729 167.512 129.206 167.845 129.756 168.08C130.31 168.309 130.91 168.424 131.556 168.424C131.961 168.424 132.321 168.397 132.636 168.344C132.956 168.291 133.249 168.211 133.516 168.104C133.782 167.997 134.03 167.867 134.26 167.712C134.489 167.557 134.716 167.376 134.94 167.168C134.966 167.147 134.99 167.131 135.012 167.12C135.038 167.104 135.068 167.096 135.1 167.096Z" fill="black"/>
<path d="M120.683 163.928H124.403V164.576H120.683V163.928Z" fill="black"/>
<path d="M121.033 157.68V158.376H117.057V169H116.241V158.376H112.241V157.68H121.033Z" fill="black"/>
<path d="M104.962 163.88V169H104.146V157.68H107.034C108.341 157.68 109.317 157.933 109.962 158.44C110.608 158.941 110.93 159.68 110.93 160.656C110.93 161.088 110.856 161.483 110.706 161.84C110.557 162.197 110.341 162.512 110.058 162.784C109.781 163.051 109.445 163.272 109.05 163.448C108.656 163.619 108.21 163.731 107.714 163.784C107.842 163.864 107.957 163.971 108.058 164.104L111.954 169H111.242C111.157 169 111.082 168.984 111.018 168.952C110.96 168.92 110.901 168.867 110.842 168.792L107.218 164.2C107.128 164.083 107.029 164 106.922 163.952C106.821 163.904 106.661 163.88 106.442 163.88H104.962ZM104.962 163.272H106.93C107.432 163.272 107.88 163.213 108.274 163.096C108.674 162.973 109.01 162.8 109.282 162.576C109.56 162.352 109.77 162.083 109.914 161.768C110.058 161.453 110.13 161.099 110.13 160.704C110.13 159.899 109.866 159.301 109.338 158.912C108.81 158.523 108.042 158.328 107.034 158.328H104.962V163.272Z" fill="black"/>
<path d="M101.238 157.68V158.36H95.2776V162.936H100.238V163.6H95.2776V168.32H101.238V169H94.4536V157.68H101.238Z" fill="black"/>
<path d="M82.5811 157.68H83.2291C83.3037 157.68 83.3651 157.701 83.4131 157.744C83.4611 157.781 83.4984 157.832 83.5251 157.896L87.3811 167.288C87.4824 167.533 87.5651 167.795 87.6291 168.072C87.6877 167.784 87.7651 167.523 87.8611 167.288L91.7091 157.896C91.7357 157.837 91.7731 157.787 91.8211 157.744C91.8744 157.701 91.9384 157.68 92.0131 157.68H92.6531L87.9811 169H87.2531L82.5811 157.68Z" fill="black"/>
<path fill-rule="evenodd" clip-rule="evenodd" d="M106.539 49.4699C117.212 53.1115 127.248 59.4177 132.113 69.6294C136.943 79.7695 135.177 91.4275 131.617 102.115C128.022 112.904 122.282 123.102 112.427 128.717C102.017 134.647 88.9091 137.751 78.1482 132.574C68.0009 127.692 67.8551 113.923 61.8345 104.377C54.2735 92.3883 46.6109 83.513 49.7032 69.6294C53.7031 58.3864 60.5548 53.9733 73.9909 49.7978C84.7772 46.4458 95.8712 45.83 106.539 49.4699Z" fill="#9AC7CA"/>
<path d="M154.203 89.8866C154.203 113.359 135.175 132.387 111.703 132.387C88.231 132.387 69.2031 113.359 69.2031 89.8866C69.2031 66.4145 88.231 47.3866 111.703 47.3866C135.175 47.3866 154.203 66.4145 154.203 89.8866Z" fill="white"/>
<path fill-rule="evenodd" clip-rule="evenodd" d="M111.703 128.387C132.966 128.387 150.203 111.15 150.203 89.8866C150.203 68.6236 132.966 51.3866 111.703 51.3866C90.4402 51.3866 73.2031 68.6236 73.2031 89.8866C73.2031 111.15 90.4402 128.387 111.703 128.387ZM111.703 132.387C135.175 132.387 154.203 113.359 154.203 89.8866C154.203 66.4145 135.175 47.3866 111.703 47.3866C88.231 47.3866 69.2031 66.4145 69.2031 89.8866C69.2031 113.359 88.231 132.387 111.703 132.387Z" fill="black"/>
<path d="M123.911 99.4826C124.658 99.4826 125.319 99.4186 125.895 99.2906C126.471 99.1626 127.015 98.9919 127.527 98.7786V95.2426H125.223C124.882 95.2426 124.615 95.1519 124.423 94.9706C124.231 94.7893 124.135 94.5599 124.135 94.2826V91.3066H132.423V101.147C131.826 101.584 131.202 101.963 130.551 102.283C129.911 102.592 129.223 102.848 128.487 103.051C127.762 103.253 126.983 103.403 126.151 103.499C125.33 103.595 124.445 103.643 123.495 103.643C121.789 103.643 120.21 103.344 118.759 102.747C117.309 102.139 116.05 101.307 114.983 100.251C113.927 99.1839 113.095 97.9253 112.487 96.4746C111.89 95.0133 111.591 93.4293 111.591 91.7226C111.591 89.9839 111.879 88.3893 112.455 86.9386C113.031 85.4773 113.853 84.2186 114.919 83.1626C115.997 82.1066 117.293 81.2853 118.807 80.6986C120.333 80.1119 122.034 79.8186 123.911 79.8186C124.882 79.8186 125.794 79.8986 126.647 80.0586C127.501 80.2186 128.285 80.4373 128.999 80.7146C129.725 80.9919 130.386 81.3226 130.983 81.7066C131.581 82.0906 132.114 82.5066 132.583 82.9546L131.015 85.3386C130.866 85.5626 130.685 85.7386 130.471 85.8666C130.269 85.9946 130.045 86.0586 129.799 86.0586C129.479 86.0586 129.149 85.9519 128.807 85.7386C128.381 85.4826 127.975 85.2639 127.591 85.0826C127.218 84.8906 126.834 84.7359 126.439 84.6186C126.045 84.5013 125.629 84.4159 125.191 84.3626C124.754 84.3093 124.263 84.2826 123.719 84.2826C122.706 84.2826 121.794 84.4639 120.983 84.8266C120.173 85.1786 119.479 85.6799 118.903 86.3306C118.338 86.9813 117.901 87.7653 117.591 88.6826C117.282 89.5893 117.127 90.6026 117.127 91.7226C117.127 92.9599 117.298 94.0586 117.639 95.0186C117.981 95.9786 118.45 96.7893 119.047 97.4506C119.655 98.1119 120.37 98.6186 121.191 98.9706C122.023 99.3119 122.93 99.4826 123.911 99.4826Z" fill="black"/>
<path d="M97.9373 95.5946V103.387H92.5293V80.0746H100.753C102.396 80.0746 103.804 80.2719 104.977 80.6666C106.161 81.0506 107.132 81.5839 107.889 82.2666C108.657 82.9493 109.223 83.7546 109.585 84.6826C109.948 85.6106 110.129 86.6133 110.129 87.6906C110.129 88.8533 109.943 89.9199 109.569 90.8906C109.196 91.8613 108.625 92.6933 107.857 93.3866C107.089 94.0799 106.113 94.6239 104.929 95.0186C103.756 95.4026 102.364 95.5946 100.753 95.5946H97.9373ZM97.9373 91.5146H100.753C102.161 91.5146 103.175 91.1786 103.793 90.5066C104.412 89.8346 104.721 88.8959 104.721 87.6906C104.721 87.1573 104.641 86.6719 104.481 86.2346C104.321 85.7973 104.076 85.4239 103.745 85.1146C103.425 84.7946 103.015 84.5493 102.513 84.3786C102.023 84.2079 101.436 84.1226 100.753 84.1226H97.9373V91.5146Z" fill="black"/>
</svg>
