<svg width="79" height="78" viewBox="0 0 79 78" fill="none" xmlns="http://www.w3.org/2000/svg">
<path fill-rule="evenodd" clip-rule="evenodd" d="M31.3357 14.9002C35.9668 14.6783 39.1248 18.4711 42.7378 21.0027C47.1041 24.0621 53.6995 26.0694 54.2105 30.9283C54.7314 35.8813 49.3238 39.5672 45.036 42.8544C41.0987 45.8729 36.5103 49.2189 31.3357 48.465C26.465 47.7554 24.4242 42.9391 21.5637 39.4348C19.4008 36.785 17.1032 34.1781 17.0209 30.9283C16.9369 27.6092 18.7824 24.6592 21.1232 22.0382C23.9088 18.9192 26.8041 15.1173 31.3357 14.9002Z" fill="#00747A"/>
<path d="M54.2454 31.7318C54.2454 40.0537 47.4992 46.8 39.1773 46.8C30.8553 46.8 24.1091 40.0537 24.1091 31.7318C24.1091 23.4099 30.8553 16.6636 39.1773 16.6636C47.4992 16.6636 54.2454 23.4099 54.2454 31.7318Z" fill="white"/>
<path d="M54.2454 31.7318C54.2454 40.0537 47.4992 46.8 39.1773 46.8C30.8553 46.8 24.1091 40.0537 24.1091 31.7318C24.1091 23.4099 30.8553 16.6636 39.1773 16.6636C47.4992 16.6636 54.2454 23.4099 54.2454 31.7318ZM25.4652 31.7318C25.4652 39.3048 31.6043 45.4439 39.1773 45.4439C46.7502 45.4439 52.8893 39.3048 52.8893 31.7318C52.8893 24.1589 46.7502 18.0198 39.1773 18.0198C31.6043 18.0198 25.4652 24.1589 25.4652 31.7318Z" fill="#171919"/>
<path d="M40.0381 32.3828C40.0381 32.9803 39.9341 33.5362 39.7261 34.0505C39.5219 34.5649 39.2326 35.013 38.8582 35.395C38.4838 35.7732 38.0318 36.07 37.5024 36.2856C36.9767 36.5012 36.3924 36.6089 35.7495 36.6089C35.1066 36.6089 34.5204 36.5012 33.991 36.2856C33.4615 36.07 33.0077 35.7732 32.6295 35.395C32.2551 35.013 31.9639 34.5649 31.7559 34.0505C31.5517 33.5362 31.4496 32.9803 31.4496 32.3828C31.4496 31.7852 31.5517 31.2293 31.7559 30.715C31.9639 30.2007 32.2551 29.7544 32.6295 29.3762C33.0077 28.998 33.4615 28.7012 33.991 28.4856C34.5204 28.27 35.1066 28.1623 35.7495 28.1623C36.3924 28.1623 36.9767 28.2719 37.5024 28.4913C38.0318 28.7068 38.4838 29.0037 38.8582 29.3819C39.2326 29.7601 39.5219 30.2063 39.7261 30.7207C39.9341 31.235 40.0381 31.789 40.0381 32.3828ZM38.0753 32.3828C38.0753 31.9743 38.0224 31.6075 37.9165 31.2823C37.8106 30.9532 37.6575 30.6753 37.457 30.4484C37.2604 30.2215 37.0183 30.0475 36.7309 29.9265C36.4435 29.8055 36.1164 29.7449 35.7495 29.7449C35.3789 29.7449 35.048 29.8055 34.7568 29.9265C34.4694 30.0475 34.2255 30.2215 34.025 30.4484C33.8284 30.6753 33.6771 30.9532 33.5712 31.2823C33.4653 31.6075 33.4124 31.9743 33.4124 32.3828C33.4124 32.795 33.4653 33.1656 33.5712 33.4946C33.6771 33.8199 33.8284 34.0959 34.025 34.3228C34.2255 34.5497 34.4694 34.7237 34.7568 34.8447C35.048 34.962 35.3789 35.0206 35.7495 35.0206C36.1164 35.0206 36.4435 34.962 36.7309 34.8447C37.0183 34.7237 37.2604 34.5497 37.457 34.3228C37.6575 34.0959 37.8106 33.8199 37.9165 33.4946C38.0224 33.1656 38.0753 32.795 38.0753 32.3828Z" fill="black"/>
<path d="M42.8723 33.7556V36.5182H40.9549V28.253H43.8707C44.4531 28.253 44.9523 28.323 45.3683 28.4629C45.788 28.5991 46.1322 28.7881 46.4007 29.0302C46.673 29.2722 46.8734 29.5577 47.002 29.8868C47.1306 30.2158 47.1949 30.5713 47.1949 30.9532C47.1949 31.3655 47.1287 31.7436 46.9963 32.0878C46.864 32.4319 46.6616 32.7269 46.3893 32.9727C46.1171 33.2185 45.771 33.4114 45.3512 33.5513C44.9352 33.6875 44.4417 33.7556 43.8707 33.7556H42.8723ZM42.8723 32.309H43.8707C44.3699 32.309 44.7291 32.1899 44.9485 31.9516C45.1678 31.7134 45.2775 31.3806 45.2775 30.9532C45.2775 30.7641 45.2491 30.5921 45.1924 30.437C45.1357 30.282 45.0487 30.1496 44.9315 30.0399C44.818 29.9265 44.6724 29.8395 44.4947 29.779C44.3207 29.7185 44.1127 29.6882 43.8707 29.6882H42.8723V32.309Z" fill="black"/>
<path d="M12.255 56.2593H12.4847C12.5112 56.2593 12.5329 56.2668 12.55 56.282C12.567 56.2952 12.5802 56.3132 12.5897 56.3358L13.9568 59.6657C13.9927 59.7527 14.022 59.8454 14.0447 59.9437C14.0655 59.8416 14.0929 59.7489 14.127 59.6657L15.4913 56.3358C15.5007 56.3151 15.514 56.2971 15.531 56.282C15.5499 56.2668 15.5726 56.2593 15.599 56.2593H15.826L14.1695 60.2727H13.9114L12.255 56.2593Z" fill="black"/>
<path d="M18.8696 56.2593V56.5004H16.7565V58.1228H18.515V58.3582H16.7565V60.0316H18.8696V60.2727H16.4643V56.2593H18.8696Z" fill="black"/>
<path d="M20.1903 58.4575V60.2727H19.901V56.2593H20.9249C21.3882 56.2593 21.7342 56.3491 21.963 56.5287C22.1918 56.7065 22.3062 56.9684 22.3062 57.3144C22.3062 57.4676 22.2797 57.6075 22.2268 57.7342C22.1738 57.8609 22.0973 57.9724 21.997 58.0689C21.8987 58.1634 21.7796 58.2419 21.6397 58.3043C21.4997 58.3648 21.3418 58.4045 21.166 58.4234C21.2114 58.4518 21.252 58.4896 21.2879 58.5369L22.6693 60.2727H22.4168C22.3866 60.2727 22.3601 60.2671 22.3374 60.2557C22.3166 60.2444 22.2958 60.2255 22.275 60.199L20.9901 58.5709C20.958 58.5293 20.923 58.5 20.8852 58.483C20.8493 58.466 20.7925 58.4575 20.715 58.4575H20.1903ZM20.1903 58.2419H20.888C21.0658 58.2419 21.2246 58.2211 21.3645 58.1795C21.5063 58.136 21.6255 58.0745 21.7219 57.9951C21.8202 57.9157 21.8949 57.8202 21.946 57.7087C21.997 57.5971 22.0226 57.4713 22.0226 57.3314C22.0226 57.0459 21.929 56.8341 21.7418 56.6961C21.5546 56.558 21.2823 56.489 20.9249 56.489H20.1903V58.2419Z" fill="black"/>
<path d="M25.888 56.2593V56.506H24.4783V60.2727H24.189V56.506H22.7708V56.2593H25.888Z" fill="black"/>
<path d="M25.7638 58.4745H27.0827V58.7042H25.7638V58.4745Z" fill="black"/>
<path d="M30.8751 59.5977C30.894 59.5977 30.9101 59.6043 30.9233 59.6175L31.0368 59.7395C30.9536 59.8284 30.8628 59.9087 30.7645 59.9806C30.6662 60.0505 30.5584 60.1111 30.4412 60.1621C30.3258 60.2113 30.1982 60.2491 30.0582 60.2756C29.9202 60.3039 29.768 60.3181 29.6016 60.3181C29.3236 60.3181 29.0684 60.2699 28.8358 60.1735C28.6051 60.0751 28.4065 59.9371 28.2401 59.7593C28.0756 59.5797 27.9471 59.3632 27.8544 59.1098C27.7617 58.8564 27.7154 58.5747 27.7154 58.2646C27.7154 57.9601 27.7627 57.6822 27.8572 57.4307C27.9537 57.1792 28.0879 56.9636 28.26 56.784C28.434 56.6025 28.641 56.4625 28.8812 56.3642C29.1232 56.264 29.3898 56.2139 29.681 56.2139C29.8266 56.2139 29.9599 56.2252 30.0809 56.2479C30.202 56.2687 30.3145 56.2999 30.4185 56.3415C30.5244 56.3812 30.6236 56.4313 30.7163 56.4919C30.8089 56.5524 30.8997 56.6223 30.9886 56.7017L30.9006 56.8294C30.8855 56.8521 30.8619 56.8634 30.8297 56.8634C30.8127 56.8634 30.791 56.854 30.7645 56.8351C30.738 56.8143 30.704 56.7897 30.6624 56.7613C30.6227 56.731 30.5735 56.6989 30.5149 56.6649C30.4582 56.6289 30.3901 56.5968 30.3107 56.5684C30.2313 56.5382 30.1396 56.5136 30.0356 56.4947C29.9316 56.4739 29.8134 56.4635 29.681 56.4635C29.4371 56.4635 29.213 56.506 29.0088 56.5911C28.8046 56.6743 28.6287 56.7944 28.4812 56.9513C28.3337 57.1064 28.2184 57.2955 28.1352 57.5186C28.0539 57.7399 28.0132 57.9885 28.0132 58.2646C28.0132 58.5482 28.0539 58.8016 28.1352 59.0247C28.2165 59.2479 28.329 59.4369 28.4727 59.592C28.6164 59.7452 28.7857 59.8633 28.9804 59.9465C29.1771 60.0279 29.3898 60.0685 29.6186 60.0685C29.7623 60.0685 29.89 60.0591 30.0015 60.0401C30.115 60.0212 30.219 59.9929 30.3135 59.9551C30.4081 59.9172 30.496 59.8709 30.5773 59.8161C30.6586 59.7612 30.739 59.6969 30.8184 59.6232C30.8279 59.6156 30.8364 59.61 30.8439 59.6062C30.8534 59.6005 30.8638 59.5977 30.8751 59.5977Z" fill="black"/>
<path d="M36.8683 58.205C36.8683 58.5038 36.8163 58.7817 36.7123 59.0389C36.6102 59.2961 36.4655 59.5201 36.2783 59.7111C36.0911 59.9002 35.8651 60.0487 35.6004 60.1564C35.3376 60.2642 35.0454 60.3181 34.724 60.3181C34.4025 60.3181 34.1094 60.2642 33.8447 60.1564C33.58 60.0487 33.3531 59.9002 33.164 59.7111C32.9768 59.5201 32.8312 59.2961 32.7272 59.0389C32.6251 58.7817 32.574 58.5038 32.574 58.205C32.574 57.9063 32.6251 57.6283 32.7272 57.3711C32.8312 57.114 32.9768 56.8908 33.164 56.7017C33.3531 56.5126 33.58 56.3642 33.8447 56.2564C34.1094 56.1487 34.4025 56.0948 34.724 56.0948C35.0454 56.0948 35.3376 56.1496 35.6004 56.2593C35.8651 56.3671 36.0911 56.5155 36.2783 56.7046C36.4655 56.8937 36.6102 57.1168 36.7123 57.374C36.8163 57.6311 36.8683 57.9081 36.8683 58.205ZM35.8869 58.205C35.8869 58.0008 35.8604 57.8174 35.8075 57.6548C35.7545 57.4903 35.6779 57.3513 35.5777 57.2378C35.4794 57.1244 35.3584 57.0374 35.2147 56.9769C35.071 56.9164 34.9074 56.8861 34.724 56.8861C34.5387 56.8861 34.3732 56.9164 34.2276 56.9769C34.0839 57.0374 33.9619 57.1244 33.8617 57.2378C33.7634 57.3513 33.6878 57.4903 33.6348 57.6548C33.5819 57.8174 33.5554 58.0008 33.5554 58.205C33.5554 58.4111 33.5819 58.5964 33.6348 58.7609C33.6878 58.9236 33.7634 59.0616 33.8617 59.1751C33.9619 59.2885 34.0839 59.3755 34.2276 59.436C34.3732 59.4946 34.5387 59.5239 34.724 59.5239C34.9074 59.5239 35.071 59.4946 35.2147 59.436C35.3584 59.3755 35.4794 59.2885 35.5777 59.1751C35.6779 59.0616 35.7545 58.9236 35.8075 58.7609C35.8604 58.5964 35.8869 58.4111 35.8869 58.205Z" fill="black"/>
<path d="M38.2853 58.8914V60.2727H37.3267V56.1401H38.7845C39.0757 56.1401 39.3253 56.1751 39.5333 56.2451C39.7432 56.3132 39.9153 56.4077 40.0496 56.5287C40.1857 56.6497 40.2859 56.7925 40.3502 56.957C40.4145 57.1215 40.4467 57.2993 40.4467 57.4902C40.4467 57.6964 40.4136 57.8855 40.3474 58.0575C40.2812 58.2296 40.18 58.3771 40.0439 58.5C39.9077 58.6229 39.7347 58.7193 39.5248 58.7893C39.3168 58.8574 39.0701 58.8914 38.7845 58.8914H38.2853ZM38.2853 58.1681H38.7845C39.0341 58.1681 39.2138 58.1086 39.3235 57.9895C39.4331 57.8703 39.488 57.7039 39.488 57.4902C39.488 57.3957 39.4738 57.3097 39.4454 57.2321C39.417 57.1546 39.3736 57.0884 39.3149 57.0336C39.2582 56.9769 39.1854 56.9334 39.0965 56.9031C39.0096 56.8729 38.9056 56.8577 38.7845 56.8577H38.2853V58.1681Z" fill="black"/>
<path d="M43.6046 56.1401V56.8776H41.9085V57.842H43.2075V58.5511H41.9085V59.5353H43.6046V60.2727H40.9441V56.1401H43.6046Z" fill="black"/>
<path d="M45.1103 58.7439V60.2727H44.1516V56.1401H45.4961C45.7948 56.1401 46.0492 56.1713 46.2591 56.2337C46.4709 56.2943 46.6429 56.3793 46.7753 56.489C46.9095 56.5987 47.0069 56.7282 47.0674 56.8776C47.1279 57.027 47.1582 57.1896 47.1582 57.3655C47.1582 57.4997 47.1402 57.6264 47.1043 57.7455C47.0684 57.8647 47.0145 57.9753 46.9426 58.0774C46.8727 58.1776 46.7857 58.2674 46.6817 58.3468C46.5796 58.4263 46.4614 58.4915 46.3271 58.5425C46.3914 58.5747 46.451 58.6144 46.5058 58.6617C46.5626 58.7089 46.6117 58.7666 46.6533 58.8347L47.5326 60.2727H46.6647C46.5039 60.2727 46.3886 60.2122 46.3186 60.0912L45.6322 58.8914C45.602 58.8385 45.5661 58.8007 45.5245 58.778C45.4847 58.7553 45.428 58.7439 45.3543 58.7439H45.1103ZM45.1103 58.0831H45.4961C45.6266 58.0831 45.7372 58.067 45.8279 58.0348C45.9206 58.0008 45.9962 57.9545 46.0549 57.8959C46.1135 57.8372 46.156 57.7692 46.1825 57.6916C46.209 57.6122 46.2222 57.5271 46.2222 57.4364C46.2222 57.2548 46.1626 57.113 46.0435 57.0109C45.9263 56.9088 45.7438 56.8577 45.4961 56.8577H45.1103V58.0831Z" fill="black"/>
<path d="M51.7703 60.2727H51.0272C50.944 60.2727 50.875 60.2538 50.8202 60.216C50.7672 60.1763 50.7303 60.1262 50.7095 60.0657L50.4656 59.3452H48.8943L48.6503 60.0657C48.6314 60.1186 48.5946 60.1668 48.5397 60.2103C48.4849 60.2519 48.4178 60.2727 48.3383 60.2727H47.5895L49.1893 56.1401H50.1706L51.7703 60.2727ZM49.1155 58.6929H50.2444L49.8643 57.5612C49.8397 57.4893 49.8104 57.4052 49.7764 57.3087C49.7442 57.2104 49.7121 57.1045 49.6799 56.9911C49.6497 57.1064 49.6185 57.2132 49.5863 57.3116C49.5542 57.4099 49.5239 57.495 49.4956 57.5668L49.1155 58.6929Z" fill="black"/>
<path d="M53.3589 60.8684C53.3872 60.8684 53.4147 60.8721 53.4411 60.8797C53.4676 60.8873 53.5007 60.8911 53.5404 60.8911C53.5896 60.8911 53.6246 60.8816 53.6454 60.8627C53.6662 60.8457 53.6766 60.8268 53.6766 60.806C53.6766 60.7663 53.6472 60.736 53.5886 60.7152C53.5319 60.6963 53.4345 60.6774 53.2965 60.6585L53.4043 60.2983C53.1358 60.2642 52.8956 60.1886 52.6838 60.0713C52.4739 59.9522 52.2952 59.8009 52.1478 59.6175C52.0022 59.4341 51.8906 59.2223 51.8131 58.9822C51.7355 58.742 51.6968 58.483 51.6968 58.205C51.6968 57.8968 51.7497 57.6141 51.8556 57.3569C51.9615 57.0979 52.109 56.8748 52.2981 56.6876C52.4891 56.5004 52.7169 56.3548 52.9817 56.2508C53.2464 56.1468 53.5385 56.0948 53.8581 56.0948C54.0131 56.0948 54.1587 56.1089 54.2949 56.1373C54.4329 56.1638 54.5615 56.2016 54.6806 56.2508C54.7998 56.298 54.9094 56.3557 55.0097 56.4238C55.1099 56.49 55.1987 56.5637 55.2763 56.645L54.9529 57.079C54.9321 57.1055 54.9075 57.13 54.8792 57.1527C54.8508 57.1735 54.8111 57.1839 54.76 57.1839C54.726 57.1839 54.6939 57.1764 54.6636 57.1612C54.6334 57.1461 54.6012 57.1281 54.5672 57.1073C54.5331 57.0847 54.4953 57.061 54.4537 57.0364C54.414 57.01 54.3658 56.9863 54.3091 56.9655C54.2542 56.9428 54.189 56.9239 54.1134 56.9088C54.0396 56.8937 53.9526 56.8861 53.8524 56.8861C53.6784 56.8861 53.5196 56.9173 53.3759 56.9797C53.2322 57.0402 53.1083 57.1281 53.0043 57.2435C52.9022 57.3569 52.8219 57.495 52.7633 57.6576C52.7065 57.8202 52.6782 58.0027 52.6782 58.205C52.6782 58.4168 52.7065 58.6049 52.7633 58.7695C52.8219 58.934 52.9003 59.0729 52.9987 59.1864C53.0989 59.298 53.2152 59.3831 53.3475 59.4417C53.4799 59.5003 53.6217 59.5296 53.773 59.5296C53.86 59.5296 53.9394 59.5258 54.0112 59.5182C54.0831 59.5088 54.1493 59.4937 54.2098 59.4729C54.2722 59.4521 54.3308 59.4256 54.3856 59.3935C54.4424 59.3594 54.4991 59.3178 54.5558 59.2687C54.5785 59.2497 54.6031 59.2346 54.6296 59.2233C54.656 59.21 54.6835 59.2034 54.7118 59.2034C54.7345 59.2034 54.7572 59.2081 54.7799 59.2176C54.8026 59.2252 54.8243 59.2393 54.8451 59.2601L55.2252 59.6601C55.0796 59.8511 54.9 60.0014 54.6863 60.1111C54.4745 60.2188 54.2278 60.2841 53.946 60.3068L53.9233 60.3947C54.0084 60.4174 54.0793 60.4439 54.136 60.4741C54.1928 60.5044 54.2372 60.5375 54.2694 60.5734C54.3034 60.6093 54.327 60.6481 54.3403 60.6897C54.3554 60.7332 54.363 60.7776 54.363 60.823C54.363 60.8892 54.344 60.9487 54.3062 61.0017C54.2703 61.0546 54.2192 61.1 54.1531 61.1378C54.0869 61.1756 54.0065 61.2049 53.912 61.2257C53.8193 61.2465 53.7163 61.2569 53.6028 61.2569C53.5253 61.2569 53.4534 61.2532 53.3872 61.2456C53.323 61.238 53.2549 61.2267 53.183 61.2116L53.2624 60.9449C53.2738 60.8939 53.3059 60.8684 53.3589 60.8684Z" fill="black"/>
<path d="M59.742 58.205C59.742 58.5038 59.69 58.7817 59.586 59.0389C59.4839 59.2961 59.3392 59.5201 59.152 59.7111C58.9648 59.9002 58.7389 60.0487 58.4741 60.1564C58.2113 60.2642 57.9192 60.3181 57.5977 60.3181C57.2762 60.3181 56.9832 60.2642 56.7184 60.1564C56.4537 60.0487 56.2268 59.9002 56.0377 59.7111C55.8505 59.5201 55.7049 59.2961 55.6009 59.0389C55.4988 58.7817 55.4477 58.5038 55.4477 58.205C55.4477 57.9063 55.4988 57.6283 55.6009 57.3711C55.7049 57.114 55.8505 56.8908 56.0377 56.7017C56.2268 56.5126 56.4537 56.3642 56.7184 56.2564C56.9832 56.1487 57.2762 56.0948 57.5977 56.0948C57.9192 56.0948 58.2113 56.1496 58.4741 56.2593C58.7389 56.3671 58.9648 56.5155 59.152 56.7046C59.3392 56.8937 59.4839 57.1168 59.586 57.374C59.69 57.6311 59.742 57.9081 59.742 58.205ZM58.7606 58.205C58.7606 58.0008 58.7341 57.8174 58.6812 57.6548C58.6282 57.4903 58.5517 57.3513 58.4514 57.2378C58.3531 57.1244 58.2321 57.0374 58.0884 56.9769C57.9447 56.9164 57.7811 56.8861 57.5977 56.8861C57.4124 56.8861 57.2469 56.9164 57.1013 56.9769C56.9576 57.0374 56.8357 57.1244 56.7354 57.2378C56.6371 57.3513 56.5615 57.4903 56.5085 57.6548C56.4556 57.8174 56.4291 58.0008 56.4291 58.205C56.4291 58.4111 56.4556 58.5964 56.5085 58.7609C56.5615 58.9236 56.6371 59.0616 56.7354 59.1751C56.8357 59.2885 56.9576 59.3755 57.1013 59.436C57.2469 59.4946 57.4124 59.5239 57.5977 59.5239C57.7811 59.5239 57.9447 59.4946 58.0884 59.436C58.2321 59.3755 58.3531 59.2885 58.4514 59.1751C58.5517 59.0616 58.6282 58.9236 58.6812 58.7609C58.7341 58.5964 58.7606 58.4111 58.7606 58.205ZM57.9551 55.3687C57.9948 55.3687 58.0279 55.3583 58.0544 55.3375C58.0827 55.3167 58.0969 55.2788 58.0969 55.224H58.5734C58.5734 55.328 58.5592 55.4225 58.5309 55.5076C58.5044 55.5927 58.4656 55.6665 58.4146 55.7289C58.3635 55.7894 58.3011 55.8367 58.2274 55.8707C58.1536 55.9028 58.0704 55.9189 57.9778 55.9189C57.9078 55.9189 57.8388 55.9104 57.7707 55.8934C57.7045 55.8764 57.6412 55.8575 57.5807 55.8367C57.5221 55.814 57.4682 55.7941 57.419 55.7771C57.3698 55.7601 57.3273 55.7516 57.2914 55.7516C57.2517 55.7516 57.2186 55.7639 57.1921 55.7884C57.1675 55.8111 57.1552 55.8489 57.1552 55.9019H56.673C56.673 55.7979 56.6872 55.7033 56.7156 55.6183C56.7439 55.5332 56.7837 55.4604 56.8347 55.3999C56.8858 55.3375 56.9482 55.2892 57.0219 55.2552C57.0957 55.2212 57.1779 55.2041 57.2687 55.2041C57.3386 55.2041 57.4067 55.2127 57.4729 55.2297C57.541 55.2467 57.6043 55.2656 57.6629 55.2864C57.7234 55.3072 57.7783 55.3261 57.8274 55.3431C57.8766 55.3601 57.9192 55.3687 57.9551 55.3687Z" fill="black"/>
<path d="M62.8609 56.1401V56.8776H61.1647V57.842H62.4638V58.5511H61.1647V59.5353H62.8609V60.2727H60.2004V56.1401H62.8609Z" fill="black"/>
<path d="M65.711 56.9797C65.6827 57.0251 65.6524 57.0591 65.6203 57.0818C65.59 57.1045 65.5503 57.1158 65.5011 57.1158C65.4576 57.1158 65.4104 57.1026 65.3593 57.0761C65.3102 57.0478 65.2534 57.0166 65.1891 56.9825C65.1267 56.9485 65.0549 56.9183 64.9736 56.8918C64.8923 56.8634 64.7996 56.8492 64.6956 56.8492C64.516 56.8492 64.3817 56.888 64.2928 56.9655C64.2059 57.0412 64.1624 57.1442 64.1624 57.2747C64.1624 57.3579 64.1888 57.4269 64.2418 57.4817C64.2947 57.5366 64.3638 57.5839 64.4488 57.6236C64.5358 57.6633 64.6342 57.7001 64.7438 57.7342C64.8554 57.7663 64.9688 57.8032 65.0842 57.8448C65.1995 57.8845 65.312 57.9318 65.4217 57.9866C65.5333 58.0415 65.6316 58.1114 65.7167 58.1965C65.8037 58.2816 65.8736 58.3856 65.9266 58.5085C65.9795 58.6295 66.006 58.7761 66.006 58.9481C66.006 59.1391 65.9729 59.3178 65.9067 59.4842C65.8406 59.6506 65.7441 59.7962 65.6174 59.921C65.4926 60.0439 65.3376 60.1413 65.1523 60.2132C64.9688 60.2831 64.7599 60.3181 64.5254 60.3181C64.3968 60.3181 64.2654 60.3049 64.1312 60.2784C63.9988 60.2519 63.8702 60.215 63.7454 60.1678C63.6206 60.1186 63.5034 60.0609 63.3937 59.9948C63.284 59.9286 63.1886 59.8548 63.1072 59.7735L63.3909 59.3254C63.4117 59.2913 63.441 59.2639 63.4788 59.2431C63.5166 59.2223 63.5573 59.2119 63.6008 59.2119C63.6575 59.2119 63.7142 59.2299 63.771 59.2658C63.8296 59.3017 63.8948 59.3415 63.9667 59.3849C64.0404 59.4284 64.1246 59.4681 64.2191 59.5041C64.3136 59.54 64.4252 59.558 64.5538 59.558C64.7278 59.558 64.863 59.5201 64.9594 59.4445C65.0558 59.367 65.104 59.245 65.104 59.0786C65.104 58.9822 65.0776 58.9037 65.0246 58.8432C64.9717 58.7827 64.9017 58.7326 64.8147 58.6929C64.7296 58.6532 64.6323 58.6182 64.5226 58.5879C64.4129 58.5577 64.3004 58.5246 64.1851 58.4887C64.0697 58.4508 63.9572 58.4055 63.8475 58.3525C63.7379 58.2977 63.6395 58.2268 63.5526 58.1398C63.4675 58.0509 63.3984 57.9412 63.3455 57.8108C63.2926 57.6784 63.2661 57.5158 63.2661 57.3229C63.2661 57.1679 63.2973 57.0166 63.3597 56.8691C63.4221 56.7216 63.5138 56.5902 63.6348 56.4748C63.7558 56.3595 63.9043 56.2678 64.0801 56.1997C64.256 56.1297 64.4574 56.0948 64.6843 56.0948C64.811 56.0948 64.9339 56.1052 65.053 56.126C65.174 56.1449 65.2884 56.1742 65.3962 56.2139C65.504 56.2517 65.6042 56.298 65.6968 56.3529C65.7914 56.4058 65.8755 56.4663 65.9493 56.5344L65.711 56.9797Z" fill="black"/>
</svg>
