<svg width="222" height="220" viewBox="0 0 222 220" fill="none" xmlns="http://www.w3.org/2000/svg">
<path fill-rule="evenodd" clip-rule="evenodd" d="M47.1233 75.4932C48.0759 67.6452 56.3537 62.7393 62.2656 56.6071C69.4388 49.1666 73.593 38.3688 84.7642 36.4499C97.0786 34.3347 109.329 39.9898 118.839 46.8896C129.162 54.3799 137.108 64.1054 138.574 75.4932C140.208 88.1784 137.298 101.57 127.1 111.031C116.482 120.883 100.251 128.156 84.7642 125.418C70.4677 122.89 64.9741 109.028 57.1607 98.6645C51.7177 91.4452 46.0916 83.993 47.1233 75.4932Z" fill="#DB904B"/>
<circle cx="111.5" cy="79.5" r="40.5" fill="white" stroke="black" stroke-width="4"/>
<path d="M84.1278 148.68H84.7758C84.8505 148.68 84.9118 148.701 84.9598 148.744C85.0078 148.781 85.0451 148.832 85.0718 148.896L88.9278 158.288C89.0291 158.533 89.1118 158.795 89.1758 159.072C89.2345 158.784 89.3118 158.523 89.4078 158.288L93.2558 148.896C93.2825 148.837 93.3198 148.787 93.3678 148.744C93.4211 148.701 93.4851 148.68 93.5598 148.68H94.1998L89.5278 160H88.7998L84.1278 148.68ZM102.784 148.68V149.36H96.8243V153.936H101.784V154.6H96.8243V159.32H102.784V160H96.0003V148.68H102.784ZM106.509 154.88V160H105.693V148.68H108.581C109.888 148.68 110.864 148.933 111.509 149.44C112.155 149.941 112.477 150.68 112.477 151.656C112.477 152.088 112.403 152.483 112.253 152.84C112.104 153.197 111.888 153.512 111.605 153.784C111.328 154.051 110.992 154.272 110.597 154.448C110.203 154.619 109.757 154.731 109.261 154.784C109.389 154.864 109.504 154.971 109.605 155.104L113.501 160H112.789C112.704 160 112.629 159.984 112.565 159.952C112.507 159.92 112.448 159.867 112.389 159.792L108.765 155.2C108.675 155.083 108.576 155 108.469 154.952C108.368 154.904 108.208 154.88 107.989 154.88H106.509ZM106.509 154.272H108.477C108.979 154.272 109.427 154.213 109.821 154.096C110.221 153.973 110.557 153.8 110.829 153.576C111.107 153.352 111.317 153.083 111.461 152.768C111.605 152.453 111.677 152.099 111.677 151.704C111.677 150.899 111.413 150.301 110.885 149.912C110.357 149.523 109.589 149.328 108.581 149.328H106.509V154.272ZM122.58 148.68V149.376H118.604V160H117.788V149.376H113.788V148.68H122.58ZM122.23 154.928H125.95V155.576H122.23V154.928ZM136.646 158.096C136.7 158.096 136.745 158.115 136.782 158.152L137.102 158.496C136.868 158.747 136.612 158.973 136.334 159.176C136.057 159.373 135.753 159.544 135.422 159.688C135.097 159.827 134.737 159.933 134.342 160.008C133.953 160.088 133.524 160.128 133.054 160.128C132.27 160.128 131.55 159.992 130.894 159.72C130.244 159.443 129.684 159.053 129.214 158.552C128.75 158.045 128.388 157.435 128.126 156.72C127.865 156.005 127.734 155.211 127.734 154.336C127.734 153.477 127.868 152.693 128.134 151.984C128.406 151.275 128.785 150.667 129.27 150.16C129.761 149.648 130.345 149.253 131.022 148.976C131.705 148.693 132.457 148.552 133.278 148.552C133.689 148.552 134.065 148.584 134.406 148.648C134.748 148.707 135.065 148.795 135.358 148.912C135.657 149.024 135.937 149.165 136.198 149.336C136.46 149.507 136.716 149.704 136.966 149.928L136.718 150.288C136.676 150.352 136.609 150.384 136.518 150.384C136.47 150.384 136.409 150.357 136.334 150.304C136.26 150.245 136.164 150.176 136.046 150.096C135.934 150.011 135.796 149.92 135.63 149.824C135.47 149.723 135.278 149.632 135.054 149.552C134.83 149.467 134.572 149.397 134.278 149.344C133.985 149.285 133.652 149.256 133.278 149.256C132.59 149.256 131.958 149.376 131.382 149.616C130.806 149.851 130.31 150.189 129.894 150.632C129.478 151.069 129.153 151.603 128.918 152.232C128.689 152.856 128.574 153.557 128.574 154.336C128.574 155.136 128.689 155.851 128.918 156.48C129.148 157.109 129.465 157.643 129.87 158.08C130.276 158.512 130.753 158.845 131.302 159.08C131.857 159.309 132.457 159.424 133.102 159.424C133.508 159.424 133.868 159.397 134.182 159.344C134.502 159.291 134.796 159.211 135.062 159.104C135.329 158.997 135.577 158.867 135.806 158.712C136.036 158.557 136.262 158.376 136.486 158.168C136.513 158.147 136.537 158.131 136.558 158.12C136.585 158.104 136.614 158.096 136.646 158.096ZM60.8849 167.344V169.488H57.6049V179H54.9009V169.488H51.6209V167.344H60.8849ZM64.7031 174.688V179H61.9991V167.344H65.7911C66.6337 167.344 67.3511 167.432 67.9431 167.608C68.5404 167.779 69.0257 168.019 69.3991 168.328C69.7777 168.637 70.0524 169.003 70.2231 169.424C70.3937 169.845 70.4791 170.304 70.4791 170.8C70.4791 171.179 70.4284 171.536 70.3271 171.872C70.2257 172.208 70.0737 172.52 69.8711 172.808C69.6737 173.091 69.4284 173.344 69.1351 173.568C68.8471 173.792 68.5137 173.976 68.1351 174.12C68.3164 174.211 68.4844 174.323 68.6391 174.456C68.7991 174.589 68.9377 174.752 69.0551 174.944L71.5351 179H69.0871C68.6337 179 68.3084 178.829 68.1111 178.488L66.1751 175.104C66.0897 174.955 65.9884 174.848 65.8711 174.784C65.7591 174.72 65.5991 174.688 65.3911 174.688H64.7031ZM64.7031 172.824H65.7911C66.1591 172.824 66.4711 172.779 66.7271 172.688C66.9884 172.592 67.2017 172.461 67.3671 172.296C67.5324 172.131 67.6524 171.939 67.7271 171.72C67.8017 171.496 67.8391 171.256 67.8391 171C67.8391 170.488 67.6711 170.088 67.3351 169.8C67.0044 169.512 66.4897 169.368 65.7911 169.368H64.7031V172.824ZM75.5997 179H72.8797V167.344H75.5997V179ZM88.6127 179H86.5167C86.282 179 86.0874 178.947 85.9327 178.84C85.7834 178.728 85.6794 178.587 85.6207 178.416L84.9327 176.384H80.5007L79.8127 178.416C79.7594 178.565 79.6554 178.701 79.5007 178.824C79.346 178.941 79.1567 179 78.9327 179H76.8207L81.3327 167.344H84.1007L88.6127 179ZM81.1247 174.544H84.3087L83.2367 171.352C83.1674 171.149 83.0847 170.912 82.9887 170.64C82.898 170.363 82.8074 170.064 82.7167 169.744C82.6314 170.069 82.5434 170.371 82.4527 170.648C82.362 170.925 82.2767 171.165 82.1967 171.368L81.1247 174.544ZM94.5652 177.048C94.9385 177.048 95.2692 177.016 95.5572 176.952C95.8452 176.888 96.1172 176.803 96.3732 176.696V174.928H95.2212C95.0505 174.928 94.9172 174.883 94.8212 174.792C94.7252 174.701 94.6772 174.587 94.6772 174.448V172.96H98.8212V177.88C98.5225 178.099 98.2105 178.288 97.8852 178.448C97.5652 178.603 97.2212 178.731 96.8532 178.832C96.4905 178.933 96.1012 179.008 95.6852 179.056C95.2745 179.104 94.8319 179.128 94.3572 179.128C93.5039 179.128 92.7145 178.979 91.9892 178.68C91.2639 178.376 90.6345 177.96 90.1012 177.432C89.5732 176.899 89.1572 176.269 88.8532 175.544C88.5545 174.813 88.4052 174.021 88.4052 173.168C88.4052 172.299 88.5492 171.501 88.8372 170.776C89.1252 170.045 89.5359 169.416 90.0692 168.888C90.6079 168.36 91.2559 167.949 92.0132 167.656C92.7759 167.363 93.6265 167.216 94.5652 167.216C95.0505 167.216 95.5065 167.256 95.9332 167.336C96.3599 167.416 96.7519 167.525 97.1092 167.664C97.4719 167.803 97.8025 167.968 98.1012 168.16C98.3999 168.352 98.6665 168.56 98.9012 168.784L98.1172 169.976C98.0425 170.088 97.9519 170.176 97.8452 170.24C97.7439 170.304 97.6319 170.336 97.5092 170.336C97.3492 170.336 97.1839 170.283 97.0132 170.176C96.7999 170.048 96.5972 169.939 96.4052 169.848C96.2185 169.752 96.0265 169.675 95.8292 169.616C95.6319 169.557 95.4239 169.515 95.2052 169.488C94.9865 169.461 94.7412 169.448 94.4692 169.448C93.9625 169.448 93.5065 169.539 93.1012 169.72C92.6959 169.896 92.3492 170.147 92.0612 170.472C91.7785 170.797 91.5599 171.189 91.4052 171.648C91.2505 172.101 91.1732 172.608 91.1732 173.168C91.1732 173.787 91.2585 174.336 91.4292 174.816C91.5999 175.296 91.8345 175.701 92.1332 176.032C92.4372 176.363 92.7945 176.616 93.2052 176.792C93.6212 176.963 94.0745 177.048 94.5652 177.048ZM107.972 167.344V169.424H103.188V172.144H106.852V174.144H103.188V176.92H107.972V179H100.468V167.344H107.972ZM115.475 173.672C115.581 173.875 115.683 174.085 115.779 174.304C115.88 174.523 115.976 174.747 116.067 174.976C116.157 174.741 116.253 174.515 116.355 174.296C116.456 174.072 116.56 173.856 116.667 173.648L119.659 167.76C119.712 167.659 119.765 167.581 119.819 167.528C119.877 167.469 119.941 167.427 120.011 167.4C120.08 167.373 120.157 167.357 120.243 167.352C120.333 167.347 120.437 167.344 120.555 167.344H122.619V179H120.235V172.296C120.235 171.971 120.251 171.619 120.283 171.24L117.195 177.232C117.099 177.419 116.968 177.56 116.803 177.656C116.643 177.752 116.459 177.8 116.251 177.8H115.883C115.675 177.8 115.488 177.752 115.323 177.656C115.163 177.56 115.035 177.419 114.939 177.232L111.835 171.232C111.856 171.419 111.872 171.605 111.883 171.792C111.893 171.973 111.899 172.141 111.899 172.296V179H109.515V167.344H111.579C111.696 167.344 111.797 167.347 111.883 167.352C111.973 167.357 112.053 167.373 112.123 167.4C112.192 167.427 112.253 167.469 112.307 167.528C112.365 167.581 112.421 167.659 112.475 167.76L115.475 173.672ZM138.216 173.168C138.216 174.011 138.069 174.789 137.776 175.504C137.488 176.213 137.08 176.829 136.552 177.352C136.024 177.869 135.386 178.275 134.64 178.568C133.898 178.856 133.074 179 132.168 179H127.64V167.344H132.168C133.074 167.344 133.898 167.491 134.64 167.784C135.386 168.077 136.024 168.483 136.552 169C137.08 169.517 137.488 170.133 137.776 170.848C138.069 171.557 138.216 172.331 138.216 173.168ZM135.448 173.168C135.448 172.592 135.373 172.072 135.224 171.608C135.074 171.144 134.858 170.752 134.576 170.432C134.298 170.107 133.957 169.859 133.552 169.688C133.146 169.512 132.685 169.424 132.168 169.424H130.36V176.92H132.168C132.685 176.92 133.146 176.835 133.552 176.664C133.957 176.488 134.298 176.24 134.576 175.92C134.858 175.595 135.074 175.2 135.224 174.736C135.373 174.272 135.448 173.749 135.448 173.168ZM151.019 173.168C151.019 174.011 150.872 174.795 150.579 175.52C150.291 176.245 149.883 176.877 149.355 177.416C148.827 177.949 148.189 178.368 147.443 178.672C146.701 178.976 145.877 179.128 144.971 179.128C144.064 179.128 143.237 178.976 142.491 178.672C141.744 178.368 141.104 177.949 140.571 177.416C140.043 176.877 139.632 176.245 139.339 175.52C139.051 174.795 138.907 174.011 138.907 173.168C138.907 172.325 139.051 171.541 139.339 170.816C139.632 170.091 140.043 169.461 140.571 168.928C141.104 168.395 141.744 167.976 142.491 167.672C143.237 167.368 144.064 167.216 144.971 167.216C145.877 167.216 146.701 167.371 147.443 167.68C148.189 167.984 148.827 168.403 149.355 168.936C149.883 169.469 150.291 170.099 150.579 170.824C150.872 171.549 151.019 172.331 151.019 173.168ZM148.251 173.168C148.251 172.592 148.176 172.075 148.027 171.616C147.877 171.152 147.661 170.76 147.379 170.44C147.101 170.12 146.76 169.875 146.355 169.704C145.949 169.533 145.488 169.448 144.971 169.448C144.448 169.448 143.981 169.533 143.571 169.704C143.165 169.875 142.821 170.12 142.539 170.44C142.261 170.76 142.048 171.152 141.899 171.616C141.749 172.075 141.675 172.592 141.675 173.168C141.675 173.749 141.749 174.272 141.899 174.736C142.048 175.195 142.261 175.584 142.539 175.904C142.821 176.224 143.165 176.469 143.571 176.64C143.981 176.805 144.448 176.888 144.971 176.888C145.488 176.888 145.949 176.805 146.355 176.64C146.76 176.469 147.101 176.224 147.379 175.904C147.661 175.584 147.877 175.195 148.027 174.736C148.176 174.272 148.251 173.749 148.251 173.168ZM160.144 175.984C160.208 175.984 160.272 175.997 160.336 176.024C160.4 176.045 160.461 176.085 160.52 176.144L161.592 177.272C161.122 177.885 160.533 178.349 159.824 178.664C159.12 178.973 158.285 179.128 157.32 179.128C156.434 179.128 155.64 178.979 154.936 178.68C154.237 178.376 153.642 177.96 153.152 177.432C152.666 176.899 152.293 176.269 152.032 175.544C151.77 174.813 151.64 174.021 151.64 173.168C151.64 172.299 151.789 171.501 152.088 170.776C152.386 170.045 152.802 169.416 153.336 168.888C153.874 168.36 154.517 167.949 155.264 167.656C156.01 167.363 156.834 167.216 157.736 167.216C158.173 167.216 158.584 167.256 158.968 167.336C159.357 167.411 159.72 167.517 160.056 167.656C160.392 167.789 160.701 167.952 160.984 168.144C161.266 168.331 161.517 168.539 161.736 168.768L160.824 169.992C160.765 170.067 160.696 170.136 160.616 170.2C160.536 170.259 160.424 170.288 160.28 170.288C160.184 170.288 160.093 170.267 160.008 170.224C159.922 170.181 159.832 170.131 159.736 170.072C159.64 170.008 159.533 169.941 159.416 169.872C159.304 169.797 159.168 169.731 159.008 169.672C158.853 169.608 158.669 169.555 158.456 169.512C158.248 169.469 158.002 169.448 157.72 169.448C157.229 169.448 156.781 169.536 156.376 169.712C155.97 169.883 155.621 170.131 155.328 170.456C155.04 170.776 154.813 171.165 154.648 171.624C154.488 172.083 154.408 172.597 154.408 173.168C154.408 173.765 154.488 174.296 154.648 174.76C154.813 175.224 155.034 175.616 155.312 175.936C155.594 176.251 155.922 176.491 156.296 176.656C156.669 176.821 157.069 176.904 157.496 176.904C157.741 176.904 157.965 176.893 158.168 176.872C158.37 176.845 158.557 176.803 158.728 176.744C158.904 176.685 159.069 176.611 159.224 176.52C159.384 176.424 159.544 176.307 159.704 176.168C159.768 176.115 159.837 176.072 159.912 176.04C159.986 176.003 160.064 175.984 160.144 175.984ZM169.323 169.712C169.243 169.84 169.158 169.936 169.067 170C168.982 170.064 168.87 170.096 168.731 170.096C168.609 170.096 168.475 170.059 168.331 169.984C168.193 169.904 168.033 169.816 167.851 169.72C167.675 169.624 167.473 169.539 167.243 169.464C167.014 169.384 166.753 169.344 166.459 169.344C165.953 169.344 165.574 169.453 165.323 169.672C165.078 169.885 164.955 170.176 164.955 170.544C164.955 170.779 165.03 170.973 165.179 171.128C165.329 171.283 165.523 171.416 165.763 171.528C166.009 171.64 166.286 171.744 166.595 171.84C166.91 171.931 167.23 172.035 167.555 172.152C167.881 172.264 168.198 172.397 168.507 172.552C168.822 172.707 169.099 172.904 169.339 173.144C169.585 173.384 169.782 173.677 169.931 174.024C170.081 174.365 170.155 174.779 170.155 175.264C170.155 175.803 170.062 176.307 169.875 176.776C169.689 177.245 169.417 177.656 169.059 178.008C168.707 178.355 168.27 178.629 167.747 178.832C167.23 179.029 166.641 179.128 165.979 179.128C165.617 179.128 165.246 179.091 164.867 179.016C164.494 178.941 164.131 178.837 163.779 178.704C163.427 178.565 163.097 178.403 162.787 178.216C162.478 178.029 162.209 177.821 161.979 177.592L162.779 176.328C162.838 176.232 162.921 176.155 163.027 176.096C163.134 176.037 163.249 176.008 163.371 176.008C163.531 176.008 163.691 176.059 163.851 176.16C164.017 176.261 164.201 176.373 164.403 176.496C164.611 176.619 164.849 176.731 165.115 176.832C165.382 176.933 165.697 176.984 166.059 176.984C166.55 176.984 166.931 176.877 167.203 176.664C167.475 176.445 167.611 176.101 167.611 175.632C167.611 175.36 167.537 175.139 167.387 174.968C167.238 174.797 167.041 174.656 166.795 174.544C166.555 174.432 166.281 174.333 165.971 174.248C165.662 174.163 165.345 174.069 165.019 173.968C164.694 173.861 164.377 173.733 164.067 173.584C163.758 173.429 163.481 173.229 163.235 172.984C162.995 172.733 162.801 172.424 162.651 172.056C162.502 171.683 162.427 171.224 162.427 170.68C162.427 170.243 162.515 169.816 162.691 169.4C162.867 168.984 163.126 168.613 163.467 168.288C163.809 167.963 164.227 167.704 164.723 167.512C165.219 167.315 165.787 167.216 166.427 167.216C166.785 167.216 167.131 167.245 167.467 167.304C167.809 167.357 168.131 167.44 168.435 167.552C168.739 167.659 169.022 167.789 169.283 167.944C169.55 168.093 169.787 168.264 169.995 168.456L169.323 169.712Z" fill="black"/>
<path d="M108.895 69.6881V73.9761H102.335V93.0001H96.9269V73.9761H90.3669V69.6881H108.895ZM132.275 81.3361C132.275 83.0215 131.982 84.5788 131.395 86.0081C130.819 87.4268 130.003 88.6588 128.947 89.7041C127.891 90.7388 126.616 91.5495 125.123 92.1361C123.64 92.7121 121.992 93.0001 120.179 93.0001H111.123V69.6881H120.179C121.992 69.6881 123.64 69.9815 125.123 70.5681C126.616 71.1548 127.891 71.9655 128.947 73.0001C130.003 74.0348 130.819 75.2668 131.395 76.6961C131.982 78.1148 132.275 79.6615 132.275 81.3361ZM126.739 81.3361C126.739 80.1841 126.59 79.1441 126.291 78.2161C125.992 77.2881 125.56 76.5041 124.995 75.8641C124.44 75.2135 123.758 74.7175 122.947 74.3761C122.136 74.0241 121.214 73.8481 120.179 73.8481H116.563V88.8401H120.179C121.214 88.8401 122.136 88.6695 122.947 88.3281C123.758 87.9761 124.44 87.4801 124.995 86.8401C125.56 86.1895 125.992 85.4001 126.291 84.4721C126.59 83.5441 126.739 82.4988 126.739 81.3361Z" fill="black"/>
</svg>
