<svg width="222" height="220" viewBox="0 0 222 220" fill="none" xmlns="http://www.w3.org/2000/svg">
<path fill-rule="evenodd" clip-rule="evenodd" d="M106.178 49.2806C116.85 52.9222 126.887 59.2284 131.751 69.4401C136.582 79.5802 134.816 91.2382 131.255 101.925C127.661 112.714 121.921 122.913 112.066 128.527C101.656 134.457 88.5476 137.562 77.7868 132.385C67.6395 127.503 67.4936 113.733 61.4731 104.187C53.9121 92.1991 46.2495 83.3237 49.3418 69.4401C53.3417 58.1971 60.1933 53.7841 73.6295 49.6085C84.4158 46.2565 95.5098 45.6407 106.178 49.2806Z" fill="#3B634E"/>
<circle cx="111.5" cy="89.5" r="40.5" fill="white" stroke="black" stroke-width="4"/>
<path d="M31.1825 158.483H31.8305C31.9052 158.483 31.9665 158.504 32.0145 158.547C32.0625 158.584 32.0998 158.635 32.1265 158.699L35.9825 168.091C36.0838 168.336 36.1665 168.597 36.2305 168.875C36.2892 168.587 36.3665 168.325 36.4625 168.091L40.3105 158.699C40.3372 158.64 40.3745 158.589 40.4225 158.547C40.4758 158.504 40.5398 158.483 40.6145 158.483H41.2545L36.5825 169.803H35.8545L31.1825 158.483ZM49.839 158.483V159.163H43.879V163.739H48.839V164.403H43.879V169.123H49.839V169.803H43.055V158.483H49.839ZM53.5641 164.683V169.803H52.7481V158.483H55.6361C56.9428 158.483 57.9188 158.736 58.5641 159.243C59.2095 159.744 59.5321 160.483 59.5321 161.459C59.5321 161.891 59.4575 162.285 59.3081 162.643C59.1588 163 58.9428 163.315 58.6601 163.587C58.3828 163.853 58.0468 164.075 57.6521 164.251C57.2575 164.421 56.8121 164.533 56.3161 164.587C56.4441 164.667 56.5588 164.773 56.6601 164.907L60.5561 169.803H59.8441C59.7588 169.803 59.6841 169.787 59.6201 169.755C59.5615 169.723 59.5028 169.669 59.4441 169.595L55.8201 165.003C55.7295 164.885 55.6308 164.803 55.5241 164.755C55.4228 164.707 55.2628 164.683 55.0441 164.683H53.5641ZM53.5641 164.075H55.5321C56.0335 164.075 56.4815 164.016 56.8761 163.899C57.2761 163.776 57.6121 163.603 57.8841 163.379C58.1615 163.155 58.3721 162.885 58.5161 162.571C58.6601 162.256 58.7321 161.901 58.7321 161.507C58.7321 160.701 58.4681 160.104 57.9401 159.715C57.4121 159.325 56.6441 159.131 55.6361 159.131H53.5641V164.075ZM69.6345 158.483V159.179H65.6585V169.803H64.8425V159.179H60.8425V158.483H69.6345ZM69.2844 164.731H73.0044V165.379H69.2844V164.731ZM83.7009 167.899C83.7542 167.899 83.7995 167.917 83.8369 167.955L84.1569 168.299C83.9222 168.549 83.6662 168.776 83.3889 168.979C83.1115 169.176 82.8075 169.347 82.4769 169.491C82.1515 169.629 81.7915 169.736 81.3969 169.811C81.0075 169.891 80.5782 169.931 80.1089 169.931C79.3249 169.931 78.6049 169.795 77.9489 169.523C77.2982 169.245 76.7382 168.856 76.2689 168.355C75.8049 167.848 75.4422 167.237 75.1809 166.523C74.9195 165.808 74.7889 165.013 74.7889 164.139C74.7889 163.28 74.9222 162.496 75.1889 161.787C75.4609 161.077 75.8395 160.469 76.3249 159.963C76.8155 159.451 77.3995 159.056 78.0769 158.779C78.7595 158.496 79.5115 158.355 80.3329 158.355C80.7435 158.355 81.1195 158.387 81.4609 158.451C81.8022 158.509 82.1195 158.597 82.4129 158.715C82.7115 158.827 82.9915 158.968 83.2529 159.139C83.5142 159.309 83.7702 159.507 84.0209 159.731L83.7729 160.091C83.7302 160.155 83.6635 160.187 83.5729 160.187C83.5249 160.187 83.4635 160.16 83.3889 160.107C83.3142 160.048 83.2182 159.979 83.1009 159.899C82.9889 159.813 82.8502 159.723 82.6849 159.627C82.5249 159.525 82.3329 159.435 82.1089 159.355C81.8849 159.269 81.6262 159.2 81.3329 159.147C81.0395 159.088 80.7062 159.059 80.3329 159.059C79.6449 159.059 79.0129 159.179 78.4369 159.419C77.8609 159.653 77.3649 159.992 76.9489 160.435C76.5329 160.872 76.2075 161.405 75.9729 162.035C75.7435 162.659 75.6289 163.36 75.6289 164.139C75.6289 164.939 75.7435 165.653 75.9729 166.283C76.2022 166.912 76.5195 167.445 76.9249 167.883C77.3302 168.315 77.8075 168.648 78.3569 168.883C78.9115 169.112 79.5115 169.227 80.1569 169.227C80.5622 169.227 80.9222 169.2 81.2369 169.147C81.5569 169.093 81.8502 169.013 82.1169 168.907C82.3835 168.8 82.6315 168.669 82.8609 168.515C83.0902 168.36 83.3169 168.179 83.5409 167.971C83.5675 167.949 83.5915 167.933 83.6129 167.923C83.6395 167.907 83.6689 167.899 83.7009 167.899ZM100.605 163.971C100.605 164.813 100.458 165.597 100.165 166.323C99.8766 167.048 99.4686 167.68 98.9406 168.219C98.4126 168.752 97.7753 169.171 97.0286 169.475C96.2873 169.779 95.4633 169.931 94.5566 169.931C93.65 169.931 92.8233 169.779 92.0766 169.475C91.33 169.171 90.69 168.752 90.1566 168.219C89.6286 167.68 89.218 167.048 88.9246 166.323C88.6366 165.597 88.4926 164.813 88.4926 163.971C88.4926 163.128 88.6366 162.344 88.9246 161.619C89.218 160.893 89.6286 160.264 90.1566 159.731C90.69 159.197 91.33 158.779 92.0766 158.475C92.8233 158.171 93.65 158.019 94.5566 158.019C95.4633 158.019 96.2873 158.173 97.0286 158.483C97.7753 158.787 98.4126 159.205 98.9406 159.739C99.4686 160.272 99.8766 160.901 100.165 161.627C100.458 162.352 100.605 163.133 100.605 163.971ZM97.8366 163.971C97.8366 163.395 97.762 162.877 97.6126 162.419C97.4633 161.955 97.2473 161.563 96.9646 161.243C96.6873 160.923 96.346 160.677 95.9406 160.507C95.5353 160.336 95.074 160.251 94.5566 160.251C94.034 160.251 93.5673 160.336 93.1566 160.507C92.7513 160.677 92.4073 160.923 92.1246 161.243C91.8473 161.563 91.634 161.955 91.4846 162.419C91.3353 162.877 91.2606 163.395 91.2606 163.971C91.2606 164.552 91.3353 165.075 91.4846 165.539C91.634 165.997 91.8473 166.387 92.1246 166.707C92.4073 167.027 92.7513 167.272 93.1566 167.443C93.5673 167.608 94.034 167.691 94.5566 167.691C95.074 167.691 95.5353 167.608 95.9406 167.443C96.346 167.272 96.6873 167.027 96.9646 166.707C97.2473 166.387 97.4633 165.997 97.6126 165.539C97.762 165.075 97.8366 164.552 97.8366 163.971ZM101.898 169.803V158.147H106.186C106.991 158.147 107.676 158.221 108.242 158.371C108.807 158.52 109.268 158.731 109.626 159.003C109.983 159.275 110.242 159.605 110.402 159.995C110.567 160.384 110.65 160.819 110.65 161.299C110.65 161.56 110.612 161.813 110.538 162.059C110.463 162.299 110.346 162.525 110.186 162.739C110.026 162.952 109.82 163.147 109.569 163.323C109.319 163.493 109.018 163.643 108.666 163.771C109.434 163.957 110.002 164.261 110.37 164.683C110.738 165.099 110.922 165.635 110.922 166.291C110.922 166.787 110.826 167.248 110.634 167.675C110.442 168.101 110.159 168.475 109.786 168.795C109.418 169.109 108.962 169.357 108.418 169.539C107.874 169.715 107.252 169.803 106.554 169.803H101.898ZM104.602 164.859V167.763H106.506C106.863 167.763 107.154 167.717 107.378 167.627C107.607 167.536 107.786 167.419 107.914 167.275C108.042 167.131 108.13 166.968 108.178 166.787C108.226 166.605 108.25 166.421 108.25 166.235C108.25 166.021 108.22 165.829 108.162 165.659C108.108 165.488 108.012 165.344 107.874 165.227C107.74 165.109 107.562 165.019 107.338 164.955C107.114 164.891 106.831 164.859 106.49 164.859H104.602ZM104.602 163.051H106.01C106.308 163.051 106.578 163.029 106.818 162.987C107.058 162.944 107.26 162.869 107.426 162.763C107.596 162.656 107.724 162.509 107.81 162.323C107.9 162.136 107.946 161.901 107.946 161.619C107.946 161.341 107.911 161.112 107.842 160.931C107.772 160.744 107.666 160.595 107.522 160.483C107.378 160.371 107.194 160.291 106.97 160.243C106.751 160.195 106.49 160.171 106.186 160.171H104.602V163.051ZM115.102 165.491V169.803H112.398V158.147H116.19C117.032 158.147 117.75 158.235 118.342 158.411C118.939 158.581 119.424 158.821 119.798 159.131C120.176 159.44 120.451 159.805 120.622 160.227C120.792 160.648 120.878 161.107 120.878 161.603C120.878 161.981 120.827 162.339 120.726 162.675C120.624 163.011 120.472 163.323 120.27 163.611C120.072 163.893 119.827 164.147 119.534 164.371C119.246 164.595 118.912 164.779 118.534 164.923C118.715 165.013 118.883 165.125 119.038 165.259C119.198 165.392 119.336 165.555 119.454 165.747L121.934 169.803H119.486C119.032 169.803 118.707 169.632 118.51 169.291L116.574 165.907C116.488 165.757 116.387 165.651 116.27 165.587C116.158 165.523 115.998 165.491 115.79 165.491H115.102ZM115.102 163.627H116.19C116.558 163.627 116.87 163.581 117.126 163.491C117.387 163.395 117.6 163.264 117.766 163.099C117.931 162.933 118.051 162.741 118.126 162.523C118.2 162.299 118.238 162.059 118.238 161.803C118.238 161.291 118.07 160.891 117.734 160.603C117.403 160.315 116.888 160.171 116.19 160.171H115.102V163.627ZM125.998 169.803H123.278V158.147H125.998V169.803ZM133.651 167.851C134.024 167.851 134.355 167.819 134.643 167.755C134.931 167.691 135.203 167.605 135.459 167.499V165.731H134.307C134.136 165.731 134.003 165.685 133.907 165.595C133.811 165.504 133.763 165.389 133.763 165.251V163.763H137.907V168.683C137.608 168.901 137.296 169.091 136.971 169.251C136.651 169.405 136.307 169.533 135.939 169.635C135.576 169.736 135.187 169.811 134.771 169.859C134.36 169.907 133.918 169.931 133.443 169.931C132.59 169.931 131.8 169.781 131.075 169.483C130.35 169.179 129.72 168.763 129.187 168.235C128.659 167.701 128.243 167.072 127.939 166.347C127.64 165.616 127.491 164.824 127.491 163.971C127.491 163.101 127.635 162.304 127.923 161.579C128.211 160.848 128.622 160.219 129.155 159.691C129.694 159.163 130.342 158.752 131.099 158.459C131.862 158.165 132.712 158.019 133.651 158.019C134.136 158.019 134.592 158.059 135.019 158.139C135.446 158.219 135.838 158.328 136.195 158.467C136.558 158.605 136.888 158.771 137.187 158.963C137.486 159.155 137.752 159.363 137.987 159.587L137.203 160.779C137.128 160.891 137.038 160.979 136.931 161.043C136.83 161.107 136.718 161.139 136.595 161.139C136.435 161.139 136.27 161.085 136.099 160.979C135.886 160.851 135.683 160.741 135.491 160.651C135.304 160.555 135.112 160.477 134.915 160.419C134.718 160.36 134.51 160.317 134.291 160.291C134.072 160.264 133.827 160.251 133.555 160.251C133.048 160.251 132.592 160.341 132.187 160.523C131.782 160.699 131.435 160.949 131.147 161.275C130.864 161.6 130.646 161.992 130.491 162.451C130.336 162.904 130.259 163.411 130.259 163.971C130.259 164.589 130.344 165.139 130.515 165.619C130.686 166.099 130.92 166.504 131.219 166.835C131.523 167.165 131.88 167.419 132.291 167.595C132.707 167.765 133.16 167.851 133.651 167.851ZM150.402 169.803H148.306C148.071 169.803 147.876 169.749 147.722 169.643C147.572 169.531 147.468 169.389 147.41 169.219L146.722 167.187H142.29L141.602 169.219C141.548 169.368 141.444 169.504 141.29 169.627C141.135 169.744 140.946 169.803 140.722 169.803H138.61L143.122 158.147H145.89L150.402 169.803ZM142.914 165.347H146.098L145.026 162.155C144.956 161.952 144.874 161.715 144.778 161.443C144.687 161.165 144.596 160.867 144.506 160.547C144.42 160.872 144.332 161.173 144.242 161.451C144.151 161.728 144.066 161.968 143.986 162.171L142.914 165.347ZM154.882 171.483C154.962 171.483 155.04 171.493 155.114 171.515C155.189 171.536 155.282 171.547 155.394 171.547C155.533 171.547 155.632 171.52 155.69 171.467C155.749 171.419 155.778 171.365 155.778 171.307C155.778 171.195 155.696 171.109 155.53 171.051C155.37 170.997 155.096 170.944 154.706 170.891L155.01 169.875C154.253 169.779 153.576 169.565 152.978 169.235C152.386 168.899 151.882 168.472 151.466 167.955C151.056 167.437 150.741 166.84 150.522 166.163C150.304 165.485 150.194 164.755 150.194 163.971C150.194 163.101 150.344 162.304 150.642 161.579C150.941 160.848 151.357 160.219 151.89 159.691C152.429 159.163 153.072 158.752 153.818 158.459C154.565 158.165 155.389 158.019 156.29 158.019C156.728 158.019 157.138 158.059 157.522 158.139C157.912 158.213 158.274 158.32 158.61 158.459C158.946 158.592 159.256 158.755 159.538 158.947C159.821 159.133 160.072 159.341 160.29 159.571L159.378 160.795C159.32 160.869 159.25 160.939 159.17 161.003C159.09 161.061 158.978 161.091 158.834 161.091C158.738 161.091 158.648 161.069 158.562 161.027C158.477 160.984 158.386 160.933 158.29 160.875C158.194 160.811 158.088 160.744 157.97 160.675C157.858 160.6 157.722 160.533 157.562 160.475C157.408 160.411 157.224 160.357 157.01 160.315C156.802 160.272 156.557 160.251 156.274 160.251C155.784 160.251 155.336 160.339 154.93 160.515C154.525 160.685 154.176 160.933 153.882 161.259C153.594 161.579 153.368 161.968 153.202 162.427C153.042 162.885 152.962 163.4 152.962 163.971C152.962 164.568 153.042 165.099 153.202 165.563C153.368 166.027 153.589 166.419 153.866 166.739C154.149 167.053 154.477 167.293 154.85 167.459C155.224 167.624 155.624 167.707 156.05 167.707C156.296 167.707 156.52 167.696 156.722 167.675C156.925 167.648 157.112 167.605 157.282 167.547C157.458 167.488 157.624 167.413 157.778 167.323C157.938 167.227 158.098 167.109 158.258 166.971C158.322 166.917 158.392 166.875 158.466 166.843C158.541 166.805 158.618 166.787 158.698 166.787C158.762 166.787 158.826 166.8 158.89 166.827C158.954 166.848 159.016 166.888 159.074 166.947L160.146 168.075C159.736 168.613 159.229 169.037 158.626 169.347C158.029 169.651 157.333 169.835 156.538 169.899L156.474 170.147C156.714 170.211 156.914 170.285 157.074 170.371C157.234 170.456 157.36 170.549 157.45 170.651C157.546 170.752 157.613 170.861 157.65 170.979C157.693 171.101 157.714 171.227 157.714 171.355C157.714 171.541 157.661 171.709 157.554 171.859C157.453 172.008 157.309 172.136 157.122 172.243C156.936 172.349 156.709 172.432 156.442 172.491C156.181 172.549 155.89 172.579 155.57 172.579C155.352 172.579 155.149 172.568 154.962 172.547C154.781 172.525 154.589 172.493 154.386 172.451L154.61 171.699C154.642 171.555 154.733 171.483 154.882 171.483ZM172.886 163.971C172.886 164.813 172.739 165.597 172.446 166.323C172.158 167.048 171.75 167.68 171.222 168.219C170.694 168.752 170.057 169.171 169.31 169.475C168.569 169.779 167.745 169.931 166.838 169.931C165.931 169.931 165.105 169.779 164.358 169.475C163.611 169.171 162.971 168.752 162.438 168.219C161.91 167.68 161.499 167.048 161.206 166.323C160.918 165.597 160.774 164.813 160.774 163.971C160.774 163.128 160.918 162.344 161.206 161.619C161.499 160.893 161.91 160.264 162.438 159.731C162.971 159.197 163.611 158.779 164.358 158.475C165.105 158.171 165.931 158.019 166.838 158.019C167.745 158.019 168.569 158.173 169.31 158.483C170.057 158.787 170.694 159.205 171.222 159.739C171.75 160.272 172.158 160.901 172.446 161.627C172.739 162.352 172.886 163.133 172.886 163.971ZM170.118 163.971C170.118 163.395 170.043 162.877 169.894 162.419C169.745 161.955 169.529 161.563 169.246 161.243C168.969 160.923 168.627 160.677 168.222 160.507C167.817 160.336 167.355 160.251 166.838 160.251C166.315 160.251 165.849 160.336 165.438 160.507C165.033 160.677 164.689 160.923 164.406 161.243C164.129 161.563 163.915 161.955 163.766 162.419C163.617 162.877 163.542 163.395 163.542 163.971C163.542 164.552 163.617 165.075 163.766 165.539C163.915 165.997 164.129 166.387 164.406 166.707C164.689 167.027 165.033 167.272 165.438 167.443C165.849 167.608 166.315 167.691 166.838 167.691C167.355 167.691 167.817 167.608 168.222 167.443C168.627 167.272 168.969 167.027 169.246 166.707C169.529 166.387 169.745 165.997 169.894 165.539C170.043 165.075 170.118 164.552 170.118 163.971ZM167.846 155.971C167.958 155.971 168.051 155.941 168.126 155.883C168.206 155.824 168.246 155.717 168.246 155.563H169.59C169.59 155.856 169.55 156.123 169.47 156.363C169.395 156.603 169.286 156.811 169.142 156.987C168.998 157.157 168.822 157.291 168.614 157.387C168.406 157.477 168.171 157.523 167.91 157.523C167.713 157.523 167.518 157.499 167.326 157.451C167.139 157.403 166.961 157.349 166.79 157.291C166.625 157.227 166.473 157.171 166.334 157.123C166.195 157.075 166.075 157.051 165.974 157.051C165.862 157.051 165.769 157.085 165.694 157.155C165.625 157.219 165.59 157.325 165.59 157.475H164.23C164.23 157.181 164.27 156.915 164.35 156.675C164.43 156.435 164.542 156.229 164.686 156.059C164.83 155.883 165.006 155.747 165.214 155.651C165.422 155.555 165.654 155.507 165.91 155.507C166.107 155.507 166.299 155.531 166.486 155.579C166.678 155.627 166.857 155.68 167.022 155.739C167.193 155.797 167.347 155.851 167.486 155.899C167.625 155.947 167.745 155.971 167.846 155.971ZM181.683 158.147V160.227H176.899V162.947H180.563V164.947H176.899V167.723H181.683V169.803H174.179V158.147H181.683ZM189.722 160.515C189.642 160.643 189.556 160.739 189.466 160.803C189.38 160.867 189.268 160.899 189.13 160.899C189.007 160.899 188.874 160.861 188.73 160.787C188.591 160.707 188.431 160.619 188.25 160.523C188.074 160.427 187.871 160.341 187.642 160.267C187.412 160.187 187.151 160.147 186.858 160.147C186.351 160.147 185.972 160.256 185.722 160.475C185.476 160.688 185.354 160.979 185.354 161.347C185.354 161.581 185.428 161.776 185.578 161.931C185.727 162.085 185.922 162.219 186.162 162.331C186.407 162.443 186.684 162.547 186.994 162.643C187.308 162.733 187.628 162.837 187.954 162.955C188.279 163.067 188.596 163.2 188.906 163.355C189.22 163.509 189.498 163.707 189.738 163.947C189.983 164.187 190.18 164.48 190.33 164.827C190.479 165.168 190.554 165.581 190.554 166.067C190.554 166.605 190.46 167.109 190.274 167.579C190.087 168.048 189.815 168.459 189.458 168.811C189.106 169.157 188.668 169.432 188.146 169.635C187.628 169.832 187.039 169.931 186.378 169.931C186.015 169.931 185.644 169.893 185.266 169.819C184.892 169.744 184.53 169.64 184.178 169.507C183.826 169.368 183.495 169.205 183.186 169.019C182.876 168.832 182.607 168.624 182.378 168.395L183.178 167.131C183.236 167.035 183.319 166.957 183.426 166.899C183.532 166.84 183.647 166.811 183.77 166.811C183.93 166.811 184.09 166.861 184.25 166.963C184.415 167.064 184.599 167.176 184.802 167.299C185.01 167.421 185.247 167.533 185.514 167.635C185.78 167.736 186.095 167.787 186.458 167.787C186.948 167.787 187.33 167.68 187.602 167.467C187.874 167.248 188.01 166.904 188.01 166.435C188.01 166.163 187.935 165.941 187.786 165.771C187.636 165.6 187.439 165.459 187.194 165.347C186.954 165.235 186.679 165.136 186.37 165.051C186.06 164.965 185.743 164.872 185.418 164.771C185.092 164.664 184.775 164.536 184.466 164.387C184.156 164.232 183.879 164.032 183.634 163.787C183.394 163.536 183.199 163.227 183.05 162.859C182.9 162.485 182.826 162.027 182.826 161.483C182.826 161.045 182.914 160.619 183.09 160.203C183.266 159.787 183.524 159.416 183.866 159.091C184.207 158.765 184.626 158.507 185.122 158.315C185.618 158.117 186.186 158.019 186.826 158.019C187.183 158.019 187.53 158.048 187.866 158.107C188.207 158.16 188.53 158.243 188.834 158.355C189.138 158.461 189.42 158.592 189.682 158.747C189.948 158.896 190.186 159.067 190.394 159.259L189.722 160.515Z" fill="black"/>
<path d="M113.77 91.336C113.77 93.0213 113.476 94.5893 112.89 96.04C112.314 97.4907 111.498 98.7547 110.442 99.832C109.386 100.899 108.111 101.736 106.618 102.344C105.135 102.952 103.487 103.256 101.674 103.256C99.8605 103.256 98.2071 102.952 96.7138 102.344C95.2205 101.736 93.9405 100.899 92.8738 99.832C91.8178 98.7547 90.9965 97.4907 90.4098 96.04C89.8338 94.5893 89.5458 93.0213 89.5458 91.336C89.5458 89.6507 89.8338 88.0827 90.4098 86.632C90.9965 85.1813 91.8178 83.9227 92.8738 82.856C93.9405 81.7893 95.2205 80.952 96.7138 80.344C98.2071 79.736 99.8605 79.432 101.674 79.432C103.487 79.432 105.135 79.7413 106.618 80.36C108.111 80.968 109.386 81.8053 110.442 82.872C111.498 83.9387 112.314 85.1973 112.89 86.648C113.476 88.0987 113.77 89.6613 113.77 91.336ZM108.234 91.336C108.234 90.184 108.084 89.1493 107.786 88.232C107.487 87.304 107.055 86.52 106.49 85.88C105.935 85.24 105.252 84.7493 104.442 84.408C103.631 84.0667 102.708 83.896 101.674 83.896C100.628 83.896 99.6951 84.0667 98.8738 84.408C98.0631 84.7493 97.3751 85.24 96.8098 85.88C96.2551 86.52 95.8285 87.304 95.5298 88.232C95.2311 89.1493 95.0818 90.184 95.0818 91.336C95.0818 92.4987 95.2311 93.544 95.5298 94.472C95.8285 95.3893 96.2551 96.168 96.8098 96.808C97.3751 97.448 98.0631 97.9387 98.8738 98.28C99.6951 98.6107 100.628 98.776 101.674 98.776C102.708 98.776 103.631 98.6107 104.442 98.28C105.252 97.9387 105.935 97.448 106.49 96.808C107.055 96.168 107.487 95.3893 107.786 94.472C108.084 93.544 108.234 92.4987 108.234 91.336ZM116.356 103V79.688H124.932C126.542 79.688 127.913 79.8373 129.044 80.136C130.174 80.4347 131.097 80.856 131.812 81.4C132.526 81.944 133.044 82.6053 133.364 83.384C133.694 84.1627 133.86 85.032 133.86 85.992C133.86 86.5147 133.785 87.0213 133.636 87.512C133.486 87.992 133.252 88.4453 132.932 88.872C132.612 89.2987 132.201 89.688 131.7 90.04C131.198 90.3813 130.596 90.68 129.892 90.936C131.428 91.3093 132.564 91.9173 133.3 92.76C134.036 93.592 134.404 94.664 134.404 95.976C134.404 96.968 134.212 97.8907 133.828 98.744C133.444 99.5973 132.878 100.344 132.132 100.984C131.396 101.613 130.484 102.109 129.396 102.472C128.308 102.824 127.065 103 125.668 103H116.356ZM121.764 93.112V98.92H125.572C126.286 98.92 126.868 98.8293 127.316 98.648C127.774 98.4667 128.132 98.232 128.388 97.944C128.644 97.656 128.82 97.3307 128.916 96.968C129.012 96.6053 129.06 96.2373 129.06 95.864C129.06 95.4373 129.001 95.0533 128.884 94.712C128.777 94.3707 128.585 94.0827 128.308 93.848C128.041 93.6133 127.684 93.432 127.236 93.304C126.788 93.176 126.222 93.112 125.54 93.112H121.764ZM121.764 89.496H124.58C125.177 89.496 125.716 89.4533 126.196 89.368C126.676 89.2827 127.081 89.1333 127.412 88.92C127.753 88.7067 128.009 88.4133 128.18 88.04C128.361 87.6667 128.452 87.1973 128.452 86.632C128.452 86.0773 128.382 85.6187 128.244 85.256C128.105 84.8827 127.892 84.584 127.604 84.36C127.316 84.136 126.948 83.976 126.5 83.88C126.062 83.784 125.54 83.736 124.932 83.736H121.764V89.496Z" fill="black"/>
</svg>
