<svg width="79" height="78" viewBox="0 0 79 78" fill="none" xmlns="http://www.w3.org/2000/svg">
<path fill-rule="evenodd" clip-rule="evenodd" d="M37.6448 17.4722C41.4287 18.7633 44.9872 20.9992 46.7118 24.6197C48.4244 28.2148 47.7983 32.3481 46.5359 36.1371C45.2614 39.9623 43.2265 43.5782 39.7323 45.5688C36.0416 47.6713 31.3941 48.7719 27.5789 46.9364C23.9812 45.2056 23.9295 40.3236 21.795 36.9392C19.1143 32.6888 16.3975 29.542 17.4939 24.6197C18.912 20.6335 21.3412 19.0689 26.105 17.5885C29.9292 16.4 33.8625 16.1817 37.6448 17.4722Z" fill="#B7BF99"/>
<path d="M54.6 31.7318C54.6 40.0537 47.8537 46.8 39.5318 46.8C31.2099 46.8 24.4636 40.0537 24.4636 31.7318C24.4636 23.4099 31.2099 16.6636 39.5318 16.6636C47.8537 16.6636 54.6 23.4099 54.6 31.7318Z" fill="white"/>
<path d="M54.6 31.7318C54.6 40.0537 47.8537 46.8 39.5318 46.8C31.2099 46.8 24.4636 40.0537 24.4636 31.7318C24.4636 23.4099 31.2099 16.6636 39.5318 16.6636C47.8537 16.6636 54.6 23.4099 54.6 31.7318ZM25.8198 31.7318C25.8198 39.3048 31.9589 45.4439 39.5318 45.4439C47.1048 45.4439 53.2439 39.3048 53.2439 31.7318C53.2439 24.1589 47.1048 18.0198 39.5318 18.0198C31.9589 18.0198 25.8198 24.1589 25.8198 31.7318Z" fill="#171919"/>
<path d="M9.32997 56.1893H9.55972C9.58619 56.1893 9.60794 56.1969 9.62496 56.212C9.64197 56.2253 9.65521 56.2432 9.66467 56.2659L11.0318 59.5958C11.0677 59.6828 11.097 59.7754 11.1197 59.8738C11.1405 59.7717 11.1679 59.679 11.202 59.5958L12.5663 56.2659C12.5757 56.2451 12.589 56.2271 12.606 56.212C12.6249 56.1969 12.6476 56.1893 12.674 56.1893H12.901L11.2445 60.2028H10.9864L9.32997 56.1893Z" fill="black"/>
<path d="M15.9446 56.1893V56.4304H13.8315V58.0528H15.59V58.2882H13.8315V59.9617H15.9446V60.2028H13.5393V56.1893H15.9446Z" fill="black"/>
<path d="M17.2653 58.3875V60.2028H16.976V56.1893H17.9999C18.4632 56.1893 18.8092 56.2792 19.038 56.4588C19.2668 56.6365 19.3812 56.8984 19.3812 57.2445C19.3812 57.3976 19.3547 57.5375 19.3018 57.6642C19.2488 57.7909 19.1723 57.9025 19.072 57.9989C18.9737 58.0935 18.8546 58.1719 18.7147 58.2343C18.5747 58.2949 18.4168 58.3346 18.241 58.3535C18.2864 58.3818 18.327 58.4197 18.3629 58.4669L19.7443 60.2028H19.4918C19.4616 60.2028 19.4351 60.1971 19.4124 60.1858C19.3916 60.1744 19.3708 60.1555 19.35 60.129L18.0651 58.501C18.033 58.4594 17.998 58.4301 17.9602 58.413C17.9243 58.396 17.8675 58.3875 17.79 58.3875H17.2653ZM17.2653 58.172H17.963C18.1408 58.172 18.2996 58.1511 18.4395 58.1095C18.5814 58.0661 18.7005 58.0046 18.7969 57.9252C18.8952 57.8458 18.9699 57.7503 19.021 57.6387C19.072 57.5272 19.0976 57.4014 19.0976 57.2615C19.0976 56.9759 19.004 56.7642 18.8168 56.6261C18.6296 56.4881 18.3573 56.4191 17.9999 56.4191H17.2653V58.172Z" fill="black"/>
<path d="M22.963 56.1893V56.4361H21.5533V60.2028H21.264V56.4361H19.8458V56.1893H22.963Z" fill="black"/>
<path d="M22.8388 58.4045H24.1577V58.6343H22.8388V58.4045Z" fill="black"/>
<path d="M27.9501 59.5277C27.969 59.5277 27.9851 59.5343 27.9983 59.5476L28.1118 59.6696C28.0286 59.7584 27.9378 59.8388 27.8395 59.9106C27.7412 59.9806 27.6334 60.0411 27.5162 60.0922C27.4008 60.1413 27.2732 60.1791 27.1333 60.2056C26.9952 60.234 26.843 60.2482 26.6766 60.2482C26.3986 60.2482 26.1434 60.2 25.9108 60.1035C25.6801 60.0052 25.4815 59.8671 25.3151 59.6894C25.1506 59.5098 25.0221 59.2933 24.9294 59.0399C24.8367 58.7865 24.7904 58.5047 24.7904 58.1946C24.7904 57.8902 24.8377 57.6122 24.9322 57.3607C25.0287 57.1093 25.1629 56.8937 25.335 56.7141C25.509 56.5325 25.716 56.3926 25.9562 56.2943C26.1982 56.1941 26.4648 56.144 26.756 56.144C26.9016 56.144 27.0349 56.1553 27.1559 56.178C27.277 56.1988 27.3895 56.23 27.4935 56.2716C27.5994 56.3113 27.6986 56.3614 27.7913 56.4219C27.8839 56.4824 27.9747 56.5524 28.0636 56.6318L27.9757 56.7594C27.9605 56.7821 27.9369 56.7935 27.9047 56.7935C27.8877 56.7935 27.866 56.784 27.8395 56.7651C27.813 56.7443 27.779 56.7197 27.7374 56.6914C27.6977 56.6611 27.6485 56.629 27.5899 56.5949C27.5332 56.559 27.4651 56.5269 27.3857 56.4985C27.3063 56.4682 27.2146 56.4437 27.1106 56.4247C27.0066 56.4039 26.8884 56.3935 26.756 56.3935C26.5121 56.3935 26.288 56.4361 26.0838 56.5212C25.8796 56.6044 25.7037 56.7245 25.5562 56.8814C25.4087 57.0365 25.2934 57.2255 25.2102 57.4487C25.1289 57.6699 25.0882 57.9186 25.0882 58.1946C25.0882 58.4783 25.1289 58.7317 25.2102 58.9548C25.2915 59.1779 25.404 59.367 25.5477 59.5221C25.6914 59.6752 25.8607 59.7934 26.0554 59.8766C26.2521 59.9579 26.4648 59.9986 26.6936 59.9986C26.8373 59.9986 26.965 59.9891 27.0765 59.9702C27.19 59.9513 27.294 59.9229 27.3885 59.8851C27.4831 59.8473 27.571 59.801 27.6523 59.7461C27.7336 59.6913 27.814 59.627 27.8934 59.5533C27.9029 59.5457 27.9114 59.54 27.9189 59.5362C27.9284 59.5306 27.9388 59.5277 27.9501 59.5277Z" fill="black"/>
<path d="M33.6143 58.1351C33.6143 58.4338 33.5623 58.7099 33.4583 58.9633C33.3561 59.2148 33.2115 59.4332 33.0243 59.6185C32.8371 59.8019 32.6111 59.9456 32.3464 60.0496C32.0836 60.1517 31.7914 60.2028 31.47 60.2028H29.8646V56.0702H31.47C31.7914 56.0702 32.0836 56.1222 32.3464 56.2262C32.6111 56.3302 32.8371 56.4739 33.0243 56.6573C33.2115 56.8407 33.3561 57.0591 33.4583 57.3125C33.5623 57.564 33.6143 57.8382 33.6143 58.1351ZM32.6329 58.1351C32.6329 57.9309 32.6064 57.7465 32.5535 57.582C32.5005 57.4175 32.4239 57.2785 32.3237 57.165C32.2254 57.0497 32.1044 56.9618 31.9607 56.9013C31.8169 56.8389 31.6534 56.8077 31.47 56.8077H30.8289V59.4653H31.47C31.6534 59.4653 31.8169 59.4351 31.9607 59.3746C32.1044 59.3122 32.2254 59.2242 32.3237 59.1108C32.4239 58.9954 32.5005 58.8555 32.5535 58.691C32.6064 58.5265 32.6329 58.3412 32.6329 58.1351Z" fill="black"/>
<path d="M38.1535 58.1351C38.1535 58.4338 38.1015 58.7118 37.9975 58.969C37.8954 59.2261 37.7507 59.4502 37.5635 59.6412C37.3763 59.8303 37.1504 59.9787 36.8856 60.0865C36.6228 60.1943 36.3307 60.2482 36.0092 60.2482C35.6878 60.2482 35.3947 60.1943 35.1299 60.0865C34.8652 59.9787 34.6383 59.8303 34.4492 59.6412C34.262 59.4502 34.1164 59.2261 34.0124 58.969C33.9103 58.7118 33.8592 58.4338 33.8592 58.1351C33.8592 57.8363 33.9103 57.5583 34.0124 57.3012C34.1164 57.044 34.262 56.8209 34.4492 56.6318C34.6383 56.4427 34.8652 56.2943 35.1299 56.1865C35.3947 56.0787 35.6878 56.0248 36.0092 56.0248C36.3307 56.0248 36.6228 56.0797 36.8856 56.1893C37.1504 56.2971 37.3763 56.4456 37.5635 56.6346C37.7507 56.8237 37.8954 57.0469 37.9975 57.304C38.1015 57.5612 38.1535 57.8382 38.1535 58.1351ZM37.1721 58.1351C37.1721 57.9309 37.1456 57.7474 37.0927 57.5848C37.0398 57.4203 36.9632 57.2813 36.863 57.1679C36.7646 57.0544 36.6436 56.9674 36.4999 56.9069C36.3562 56.8464 36.1926 56.8162 36.0092 56.8162C35.8239 56.8162 35.6584 56.8464 35.5128 56.9069C35.3691 56.9674 35.2472 57.0544 35.147 57.1679C35.0486 57.2813 34.973 57.4203 34.92 57.5848C34.8671 57.7474 34.8406 57.9309 34.8406 58.1351C34.8406 58.3412 34.8671 58.5265 34.92 58.691C34.973 58.8536 35.0486 58.9917 35.147 59.1051C35.2472 59.2186 35.3691 59.3055 35.5128 59.3661C35.6584 59.4247 35.8239 59.454 36.0092 59.454C36.1926 59.454 36.3562 59.4247 36.4999 59.3661C36.6436 59.3055 36.7646 59.2186 36.863 59.1051C36.9632 58.9917 37.0398 58.8536 37.0927 58.691C37.1456 58.5265 37.1721 58.3412 37.1721 58.1351Z" fill="black"/>
<path d="M41.3887 59.1335C41.4114 59.1335 41.4341 59.1382 41.4568 59.1477C41.4794 59.1552 41.5012 59.1694 41.522 59.1902L41.9021 59.5901C41.7357 59.8076 41.5267 59.9721 41.2752 60.0837C41.0256 60.1933 40.7297 60.2482 40.3874 60.2482C40.0736 60.2482 39.7918 60.1952 39.5422 60.0893C39.2945 59.9815 39.0837 59.8341 38.9097 59.6469C38.7376 59.4578 38.6053 59.2346 38.5126 58.9775C38.42 58.7184 38.3736 58.4376 38.3736 58.1351C38.3736 57.8269 38.4266 57.5442 38.5325 57.287C38.6384 57.028 38.7858 56.8048 38.9749 56.6176C39.1659 56.4304 39.3938 56.2848 39.6585 56.1808C39.9232 56.0768 40.2154 56.0248 40.5349 56.0248C40.69 56.0248 40.8356 56.039 40.9717 56.0674C41.1098 56.0938 41.2384 56.1317 41.3575 56.1808C41.4766 56.2281 41.5863 56.2858 41.6865 56.3538C41.7867 56.42 41.8756 56.4938 41.9531 56.5751L41.6298 57.009C41.609 57.0355 41.5844 57.0601 41.556 57.0828C41.5277 57.1036 41.488 57.114 41.4369 57.114C41.4029 57.114 41.3707 57.1064 41.3405 57.0913C41.3102 57.0762 41.2781 57.0582 41.244 57.0374C41.21 57.0147 41.1722 56.9911 41.1306 56.9665C41.0909 56.94 41.0426 56.9164 40.9859 56.8956C40.9311 56.8729 40.8658 56.854 40.7902 56.8389C40.7165 56.8237 40.6295 56.8162 40.5293 56.8162C40.3553 56.8162 40.1965 56.8474 40.0528 56.9098C39.909 56.9703 39.7852 57.0582 39.6812 57.1735C39.5791 57.287 39.4987 57.425 39.4401 57.5877C39.3834 57.7503 39.355 57.9328 39.355 58.1351C39.355 58.3469 39.3834 58.535 39.4401 58.6995C39.4987 58.864 39.5772 59.003 39.6755 59.1165C39.7757 59.228 39.892 59.3131 40.0244 59.3717C40.1568 59.4304 40.2986 59.4597 40.4498 59.4597C40.5368 59.4597 40.6162 59.4559 40.6881 59.4483C40.76 59.4389 40.8261 59.4237 40.8866 59.4029C40.949 59.3821 41.0077 59.3557 41.0625 59.3235C41.1192 59.2895 41.176 59.2479 41.2327 59.1987C41.2554 59.1798 41.28 59.1647 41.3064 59.1533C41.3329 59.1401 41.3603 59.1335 41.3887 59.1335Z" fill="black"/>
<path d="M44.059 59.4455C44.1876 59.4455 44.302 59.4247 44.4022 59.3831C44.5043 59.3396 44.5903 59.2781 44.6603 59.1987C44.7303 59.1193 44.7832 59.0229 44.8191 58.9094C44.8569 58.7941 44.8759 58.6636 44.8759 58.518V56.0702H45.8345V58.518C45.8345 58.7714 45.7929 59.004 45.7098 59.2157C45.6284 59.4275 45.5112 59.61 45.358 59.7631C45.2049 59.9163 45.0186 60.0354 44.7993 60.1205C44.5799 60.2056 44.3332 60.2482 44.059 60.2482C43.7829 60.2482 43.5352 60.2056 43.3159 60.1205C43.0965 60.0354 42.9103 59.9163 42.7571 59.7631C42.6039 59.61 42.4867 59.4275 42.4054 59.2157C42.3241 59.004 42.2834 58.7714 42.2834 58.518V56.0702H43.2421V58.5152C43.2421 58.6608 43.2601 58.7912 43.296 58.9066C43.3338 59.02 43.3877 59.1174 43.4577 59.1987C43.5276 59.2781 43.6127 59.3396 43.7129 59.3831C43.8151 59.4247 43.9304 59.4455 44.059 59.4455Z" fill="black"/>
<path d="M48.5693 58.3138C48.6071 58.3856 48.643 58.4603 48.6771 58.5378C48.713 58.6154 48.747 58.6948 48.7792 58.7761C48.8113 58.6929 48.8454 58.6125 48.8813 58.535C48.9172 58.4556 48.9541 58.379 48.9919 58.3053L50.0527 56.2177C50.0716 56.1818 50.0905 56.1544 50.1094 56.1354C50.1302 56.1146 50.1529 56.0995 50.1775 56.0901C50.2021 56.0806 50.2295 56.0749 50.2598 56.073C50.2919 56.0712 50.3288 56.0702 50.3704 56.0702H51.1022V60.2028H50.2569V57.8259C50.2569 57.7106 50.2626 57.5858 50.2739 57.4515L49.1791 59.5759C49.1451 59.6421 49.0987 59.6922 49.0401 59.7263C48.9834 59.7603 48.9182 59.7773 48.8444 59.7773H48.7139C48.6402 59.7773 48.574 59.7603 48.5154 59.7263C48.4587 59.6922 48.4133 59.6421 48.3793 59.5759L47.2787 57.4487C47.2863 57.5149 47.292 57.581 47.2958 57.6472C47.2995 57.7115 47.3014 57.7711 47.3014 57.8259V60.2028H46.4562V56.0702H47.188C47.2296 56.0702 47.2655 56.0712 47.2958 56.073C47.3279 56.0749 47.3563 56.0806 47.3809 56.0901C47.4054 56.0995 47.4272 56.1146 47.4461 56.1354C47.4669 56.1544 47.4867 56.1818 47.5057 56.2177L48.5693 58.3138Z" fill="black"/>
<path d="M54.446 56.0702V56.8077H52.7498V57.772H54.0489V58.4811H52.7498V59.4653H54.446V60.2028H51.7855V56.0702H54.446Z" fill="black"/>
<path d="M55.4979 56.0702C55.5395 56.0702 55.5744 56.0721 55.6028 56.0759C55.6312 56.0797 55.6567 56.0872 55.6794 56.0986C55.7021 56.108 55.7238 56.1222 55.7446 56.1411C55.7654 56.16 55.7891 56.1855 55.8155 56.2177L57.7783 58.6995C57.7707 58.6201 57.7651 58.5435 57.7613 58.4698C57.7575 58.3941 57.7556 58.3232 57.7556 58.257V56.0702H58.6008V60.2028H58.1016C58.0279 60.2028 57.9655 60.1914 57.9144 60.1688C57.8634 60.1461 57.8142 60.1045 57.767 60.0439L55.8184 57.582C55.824 57.6538 55.8288 57.7247 55.8326 57.7947C55.8363 57.8628 55.8382 57.9271 55.8382 57.9876V60.2028H54.993V56.0702H55.4979Z" fill="black"/>
<path d="M62.2816 56.0702V56.8304H61.1187V60.2028H60.16V56.8304H58.9971V56.0702H62.2816Z" fill="black"/>
<path d="M66.5836 58.1351C66.5836 58.4338 66.5316 58.7118 66.4276 58.969C66.3255 59.2261 66.1808 59.4502 65.9937 59.6412C65.8064 59.8303 65.5805 59.9787 65.3158 60.0865C65.0529 60.1943 64.7608 60.2482 64.4393 60.2482C64.1179 60.2482 63.8248 60.1943 63.5601 60.0865C63.2953 59.9787 63.0684 59.8303 62.8793 59.6412C62.6921 59.4502 62.5465 59.2261 62.4425 58.969C62.3404 58.7118 62.2894 58.4338 62.2894 58.1351C62.2894 57.8363 62.3404 57.5583 62.4425 57.3012C62.5465 57.044 62.6921 56.8209 62.8793 56.6318C63.0684 56.4427 63.2953 56.2943 63.5601 56.1865C63.8248 56.0787 64.1179 56.0248 64.4393 56.0248C64.7608 56.0248 65.0529 56.0797 65.3158 56.1893C65.5805 56.2971 65.8064 56.4456 65.9937 56.6346C66.1808 56.8237 66.3255 57.0469 66.4276 57.304C66.5316 57.5612 66.5836 57.8382 66.5836 58.1351ZM65.6022 58.1351C65.6022 57.9309 65.5758 57.7474 65.5228 57.5848C65.4699 57.4203 65.3933 57.2813 65.2931 57.1679C65.1947 57.0544 65.0737 56.9674 64.93 56.9069C64.7863 56.8464 64.6227 56.8162 64.4393 56.8162C64.254 56.8162 64.0886 56.8464 63.943 56.9069C63.7993 56.9674 63.6773 57.0544 63.5771 57.1679C63.4787 57.2813 63.4031 57.4203 63.3502 57.5848C63.2972 57.7474 63.2707 57.9309 63.2707 58.1351C63.2707 58.3412 63.2972 58.5265 63.3502 58.691C63.4031 58.8536 63.4787 58.9917 63.5771 59.1051C63.6773 59.2186 63.7993 59.3055 63.943 59.3661C64.0886 59.4247 64.254 59.454 64.4393 59.454C64.6227 59.454 64.7863 59.4247 64.93 59.3661C65.0737 59.3055 65.1947 59.2186 65.2931 59.1051C65.3933 58.9917 65.4699 58.8536 65.5228 58.691C65.5758 58.5265 65.6022 58.3412 65.6022 58.1351Z" fill="black"/>
<path d="M69.3451 56.9098C69.3168 56.9552 69.2865 56.9892 69.2544 57.0119C69.2241 57.0346 69.1844 57.0459 69.1352 57.0459C69.0917 57.0459 69.0445 57.0327 68.9934 57.0062C68.9443 56.9778 68.8875 56.9466 68.8232 56.9126C68.7608 56.8786 68.689 56.8483 68.6077 56.8218C68.5264 56.7935 68.4337 56.7793 68.3297 56.7793C68.1501 56.7793 68.0158 56.8181 67.9269 56.8956C67.84 56.9712 67.7965 57.0743 67.7965 57.2048C67.7965 57.288 67.8229 57.357 67.8759 57.4118C67.9288 57.4666 67.9978 57.5139 68.0829 57.5536C68.1699 57.5933 68.2682 57.6302 68.3779 57.6642C68.4895 57.6964 68.6029 57.7333 68.7183 57.7749C68.8336 57.8146 68.9461 57.8618 69.0558 57.9167C69.1674 57.9715 69.2657 58.0415 69.3508 58.1266C69.4378 58.2117 69.5077 58.3157 69.5607 58.4386C69.6136 58.5596 69.6401 58.7061 69.6401 58.8782C69.6401 59.0692 69.607 59.2479 69.5408 59.4143C69.4746 59.5807 69.3782 59.7263 69.2515 59.8511C69.1267 59.974 68.9717 60.0714 68.7864 60.1432C68.6029 60.2132 68.394 60.2482 68.1595 60.2482C68.0309 60.2482 67.8995 60.2349 67.7653 60.2085C67.6329 60.182 67.5043 60.1451 67.3795 60.0978C67.2547 60.0487 67.1375 59.991 67.0278 59.9248C66.9181 59.8586 66.8226 59.7849 66.7413 59.7036L67.025 59.2554C67.0458 59.2214 67.0751 59.194 67.1129 59.1732C67.1507 59.1524 67.1914 59.142 67.2349 59.142C67.2916 59.142 67.3483 59.16 67.405 59.1959C67.4637 59.2318 67.5289 59.2715 67.6008 59.315C67.6745 59.3585 67.7587 59.3982 67.8532 59.4341C67.9477 59.4701 68.0593 59.488 68.1879 59.488C68.3618 59.488 68.497 59.4502 68.5935 59.3746C68.6899 59.297 68.7381 59.1751 68.7381 59.0087C68.7381 58.9122 68.7117 58.8338 68.6587 58.7733C68.6058 58.7127 68.5358 58.6626 68.4488 58.6229C68.3637 58.5832 68.2664 58.5482 68.1567 58.518C68.047 58.4877 67.9345 58.4546 67.8192 58.4187C67.7038 58.3809 67.5913 58.3355 67.4816 58.2826C67.372 58.2277 67.2736 58.1568 67.1866 58.0698C67.1016 57.981 67.0325 57.8713 66.9796 57.7408C66.9267 57.6085 66.9002 57.4458 66.9002 57.253C66.9002 57.0979 66.9314 56.9466 66.9938 56.7991C67.0562 56.6517 67.1479 56.5202 67.2689 56.4049C67.3899 56.2895 67.5384 56.1978 67.7142 56.1298C67.8901 56.0598 68.0914 56.0248 68.3184 56.0248C68.445 56.0248 68.568 56.0352 68.6871 56.056C68.8081 56.0749 68.9225 56.1042 69.0303 56.144C69.1381 56.1818 69.2383 56.2281 69.3309 56.2829C69.4255 56.3359 69.5096 56.3964 69.5834 56.4645L69.3451 56.9098Z" fill="black"/>
<path d="M40.0331 32.3828C40.0331 32.9803 39.9291 33.5324 39.7211 34.0392C39.5169 34.5422 39.2275 34.979 38.8531 35.3496C38.4787 35.7164 38.0268 36.0039 37.4974 36.2119C36.9717 36.4161 36.3874 36.5182 35.7445 36.5182H32.5337V28.253H35.7445C36.3874 28.253 36.9717 28.357 37.4974 28.565C38.0268 28.773 38.4787 29.0604 38.8531 29.4273C39.2275 29.7941 39.5169 30.2309 39.7211 30.7377C39.9291 31.2407 40.0331 31.789 40.0331 32.3828ZM38.0703 32.3828C38.0703 31.9743 38.0174 31.6056 37.9115 31.2766C37.8056 30.9476 37.6524 30.6696 37.452 30.4427C37.2553 30.212 37.0133 30.0361 36.7259 29.9151C36.4385 29.7903 36.1113 29.7279 35.7445 29.7279H34.4625V35.0433H35.7445C36.1113 35.0433 36.4385 34.9828 36.7259 34.8617C37.0133 34.7369 37.2553 34.5611 37.452 34.3342C37.6524 34.1035 37.8056 33.8236 37.9115 33.4946C38.0174 33.1656 38.0703 32.795 38.0703 32.3828Z" fill="black"/>
<path d="M46.5078 34.3796C46.5532 34.3796 46.5985 34.389 46.6439 34.4079C46.6893 34.4231 46.7328 34.4514 46.7744 34.493L47.5345 35.2929C47.2017 35.7278 46.7839 36.0568 46.2809 36.2799C45.7817 36.4993 45.1898 36.6089 44.5053 36.6089C43.8775 36.6089 43.314 36.5031 42.8148 36.2913C42.3194 36.0757 41.8977 35.7807 41.5498 35.4063C41.2057 35.0281 40.9409 34.5819 40.7556 34.0676C40.5703 33.5495 40.4777 32.9879 40.4777 32.3828C40.4777 31.7663 40.5836 31.2009 40.7953 30.6866C41.0071 30.1685 41.3021 29.7223 41.6803 29.3479C42.0623 28.9735 42.518 28.6823 43.0474 28.4743C43.5769 28.2663 44.1612 28.1623 44.8003 28.1623C45.1104 28.1623 45.4016 28.1906 45.6739 28.2473C45.95 28.3003 46.2071 28.3759 46.4454 28.4743C46.6836 28.5688 46.903 28.6841 47.1034 28.8203C47.3039 28.9527 47.4816 29.1001 47.6367 29.2628L46.99 30.1307C46.9484 30.1836 46.8992 30.2328 46.8425 30.2782C46.7857 30.3198 46.7063 30.3406 46.6042 30.3406C46.5361 30.3406 46.4719 30.3255 46.4113 30.2952C46.3508 30.2649 46.2865 30.229 46.2185 30.1874C46.1504 30.142 46.0748 30.0948 45.9916 30.0456C45.9121 29.9927 45.8157 29.9454 45.7023 29.9038C45.5926 29.8584 45.4621 29.8206 45.3108 29.7903C45.1633 29.7601 44.9894 29.7449 44.7889 29.7449C44.441 29.7449 44.1233 29.8073 43.8359 29.9321C43.5485 30.0532 43.3008 30.229 43.0928 30.4597C42.8886 30.6866 42.7279 30.9627 42.6106 31.2879C42.4972 31.6132 42.4404 31.9781 42.4404 32.3828C42.4404 32.8063 42.4972 33.1826 42.6106 33.5116C42.7279 33.8407 42.8848 34.1186 43.0815 34.3455C43.2819 34.5687 43.5145 34.7388 43.7792 34.8561C44.0439 34.9733 44.3276 35.0319 44.6301 35.0319C44.8041 35.0319 44.9629 35.0244 45.1066 35.0092C45.2503 34.9903 45.3827 34.9601 45.5037 34.9185C45.6285 34.8769 45.7457 34.8239 45.8554 34.7596C45.9689 34.6916 46.0823 34.6084 46.1958 34.51C46.2412 34.4722 46.2903 34.442 46.3433 34.4193C46.3962 34.3928 46.4511 34.3796 46.5078 34.3796Z" fill="black"/>
</svg>
